<?xml version="1.0" encoding="utf-8"?>
<!-- Generator: Adobe Illustrator 27.6.1, SVG Export Plug-In . SVG Version: 6.00 Build 0)  -->
<svg version="1.1" id="Capa_1" xmlns="http://www.w3.org/2000/svg" xmlns:xlink="http://www.w3.org/1999/xlink" x="0px" y="0px"
	 viewBox="0 0 1080 1920" style="enable-background:new 0 0 1080 1920;" xml:space="preserve">
<style type="text/css">
	.st0{fill:#D6C4FF;}
	.st1{fill:#FFFFFF;}
</style>
<path class="st0" d="M1.32,0.47v1248.65c0.08,0.36,0.12,0.74,0.12,1.16c0,13.67-0.02,27.34-0.12,41.01v629.11h1079.87V0.47H1.32z"/>
<path class="st1" d="M1003.88,323.22c0,68.39,30.26,129.72,78.12,171.32V151.91C1034.14,193.51,1003.88,254.83,1003.88,323.22z"/>
<path class="st1" d="M1082,1920.47v-213.65c-39.81-34.56-91.78-55.48-148.64-55.48c-125.3,0-226.87,101.59-226.87,226.9
	c0,14.43,1.36,28.54,3.94,42.23H1082z"/>
<path class="st1" d="M0.99,0.47v145.91c38.97,31.55,88.59,50.46,142.64,50.46c114.95,0,209.91-85.5,224.82-196.37
	C368.45,0.47,0.99,0.47,0.99,0.47z"/>
</svg>
