<?xml version="1.0" encoding="utf-8"?>
<!-- Generator: Adobe Illustrator 27.6.1, SVG Export Plug-In . SVG Version: 6.00 Build 0)  -->
<svg version="1.1" id="Capa_1" xmlns="http://www.w3.org/2000/svg" xmlns:xlink="http://www.w3.org/1999/xlink" x="0px" y="0px"
	 viewBox="0 0 1080 1920" style="enable-background:new 0 0 1080 1920;" xml:space="preserve">
<style type="text/css">
	.st0{fill:#9083D5;}
	.st1{fill:#75429C;}
	.st2{enable-background:new    ;}
	.st3{fill:#764A96;}
	.st4{fill:none;stroke:#764A96;stroke-miterlimit:10;}
	.st5{fill:#F6CBF1;}
	.st6{fill:none;stroke:#74429A;stroke-width:2;stroke-miterlimit:10;}
</style>
<g id="BACKGROUND">
</g>
<g id="OBJECTS">
	<g>
		<path class="st0" d="M973.5,1920V498.8c0-238.2-193.1-431.3-431.3-431.3l0,0c-238.2,0-431.3,193.1-431.3,431.3V1920H973.5z"/>
	</g>
	<g>
		<g>
			<path class="st1" d="M509.5,1628l-2-0.1c0.4-9.8,1.4-20.6,7.4-28l0,0c2.8-14.2,15.4-26.6,33.7-33.2c1.7-0.6,3.5-1.2,5.2-1.8
				c3.9-1.3,8-2.6,11.7-4.5c3.5-1.8,9.6-5.8,11.6-12.3l1.6-5.2l0.4,5.4c1.3,18.6-12.7,37.5-31.3,42.2c-3.2,0.8-6.5,1.3-9.8,1.7
				c-6.7,0.9-13.1,1.7-18.2,5.6C511.2,1604.4,510,1616.8,509.5,1628z M577,1553c-2.3,3.6-5.9,6.8-10.6,9.3c-3.8,2-8,3.3-12,4.6
				c-1.7,0.6-3.5,1.1-5.2,1.7c-16.2,5.8-27.8,16.3-31.6,28.5c0.3-0.3,0.6-0.5,1-0.8c5.5-4.2,12.4-5.1,19.1-6
				c3.2-0.4,6.5-0.9,9.5-1.6C563.4,1584.6,576,1569.1,577,1553z"/>
		</g>
		<g>
			<path class="st1" d="M517.6,1599.1l-1.7-1.1c2.1-3.1,5-7.1,9-10.2c4.5-3.5,9.9-5.4,15.1-7.2c2.8-1,5.7-2,8.4-3.3
				c3.2-1.5,6.3-3.4,9.2-5.6c1.8-1.4,3.1-2.6,4.2-4l1.5,1.3c-1.2,1.4-2.6,2.8-4.5,4.2c-3,2.3-6.2,4.3-9.6,5.8
				c-2.8,1.3-5.7,2.3-8.6,3.3c-5.3,1.9-10.3,3.6-14.6,6.9C522.4,1592.3,519.6,1596.1,517.6,1599.1z"/>
		</g>
	</g>
	<g>
		<g>
			<g>
				<g>
					<path class="st1" d="M743.1,1693.8l2.1-3.5c9.8-16.1,6.7-36.3,3.8-55.9c-1-6.6-2-13.4-2.5-19.9c-4.4-57.4,32.5-114.2,85.9-132
						l4.4-1.5l-3.4,3.1c-14.8,13.8-16.3,36.8-17.6,57.1l-0.1,1c-2.3,35.1-7.3,60.9-16.3,83.6c-11.5,28.9-30.2,52.3-52.8,65.8
						L743.1,1693.8z M829,1485.8c-50.4,19-84.8,73.4-80.6,128.5c0.5,6.4,1.5,13.2,2.5,19.8c2.8,18.6,5.7,37.8-2.2,53.9
						c20.8-13.5,38-35.7,48.8-62.8c9-22.6,14-48.2,16.2-83l0.1-1C815,1521.9,816.4,1500.3,829,1485.8z"/>
				</g>
				<g>
					<path class="st1" d="M747.9,1690l-1.3-1.5c14.2-12.3,21.9-31.2,28.2-46.4c3.7-9.1,8-19.3,10.6-29.7c3.3-13,4.3-26.7,5.2-40
						c1.2-16.2,2.3-33.1,7.8-48.7c3.3-9.4,8-18.2,14-26.1c6.4-8.4,12.9-13.4,19.9-15.2l0.5,1.9c-6.5,1.7-12.7,6.4-18.8,14.4
						c-5.9,7.8-10.5,16.3-13.7,25.5c-5.4,15.4-6.5,32.1-7.7,48.2c-0.9,13.4-1.9,27.2-5.3,40.4c-2.7,10.5-6.9,20.9-10.7,30
						C770.3,1658.2,762.4,1677.4,747.9,1690z"/>
				</g>
			</g>
			<g>
				<g>
					<path class="st1" d="M683.7,1921.7H576.6l1.4-1.6c8.8-10.4,19.4-19.9,31.5-28c20.3-13.7,44.5-24.1,78.3-33.7l1-0.3
						c19.5-5.6,41.7-11.9,52-29.3l2.3-3.9l-0.5,4.6c-3.9,36.3-25.8,70.8-58.6,92.2L683.7,1921.7z M580.9,1919.7h102.2
						c30.9-20.3,51.9-52.3,57-86.4c-11.5,15.4-32.3,21.3-50.8,26.6l-1,0.3c-33.6,9.6-57.5,19.9-77.7,33.5
						C599.3,1901.3,589.3,1910.1,580.9,1919.7z"/>
				</g>
				<g>
					<path class="st1" d="M597.6,1920.5l-1.1-1.6c9.9-6.9,22.2-15.4,35.5-21c10.1-4.3,20.8-7.4,31.1-10.4
						c11.2-3.3,22.8-6.7,33.6-11.5c10.8-4.8,20.2-11.2,28.1-18.8c7.2-7,15.6-16.5,16-27.7l2,0.1c-0.4,11.9-9.1,21.8-16.6,29.1
						c-8,7.8-17.7,14.2-28.7,19.2c-10.9,4.9-22.6,8.3-33.9,11.6c-10.3,3-20.9,6.1-30.9,10.4C619.6,1905.3,607.4,1913.7,597.6,1920.5
						z"/>
				</g>
			</g>
			<g>
				<g>
					<path class="st1" d="M607.9,1854.3l0.4-4c2.1-20.3-10.3-38.6-22.3-56.4c-4-6-8.2-12.1-11.7-18.2
						c-31-53.9-21.3-126.4,22.4-168.5l3.3-3.2l-1.7,4.3c-8,20.4,1.2,43.5,9.4,63.9l0.4,1c14.1,35.2,21.2,62.7,22.9,89.1
						c2.2,33.5-5.2,65-20.9,88.7L607.9,1854.3z M595.1,1611.6c-40.6,41.9-48.9,111.2-19.1,163.1c3.5,6,7.6,12.2,11.6,18.1
						c11.4,16.9,23.3,34.4,22.9,53.8c14.1-22.9,20.6-52.6,18.5-84.2c-1.8-26.2-8.8-53.5-22.8-88.5l-0.4-1
						C598.1,1653.5,589.4,1631.7,595.1,1611.6z"/>
				</g>
				<g>
					<path class="st1" d="M610.6,1848.6l-1.8-0.8c8.1-18.6,6.9-40.7,5.9-58.4c-0.6-10.6-1.2-22.5-3.5-33.9
						c-2.8-14.2-8.3-28.1-13.5-41.5c-6.4-16.4-13.1-33.3-15-51.1c-1.2-10.7-0.7-21.4,1.5-31.9c2.3-11.2,6.3-19,12.3-24l1.3,1.5
						c-5.6,4.7-9.4,12.2-11.6,22.9c-2.1,10.3-2.6,20.8-1.5,31.3c1.9,17.5,8.5,34.3,14.9,50.6c5.3,13.5,10.7,27.4,13.6,41.8
						c2.3,11.5,3,23.6,3.5,34.2C617.7,1807.3,618.9,1829.6,610.6,1848.6z"/>
				</g>
			</g>
			<g>
				<path class="st1" d="M566.3,1920l-1.9-0.6c6.9-23.2,21.4-46.4,42.9-69.1c10.7-11.1,22.7-22.2,34.4-32.9
					c46.4-42.7,94.4-87,87.4-153.2c-1.2-5.3-2.5-10.7-3.7-15.8c-6.9-28.9-14-58.7-12.3-89.4c2.3-22.8,8-41.9,17.1-57l1.7,1
					c-8.9,14.8-14.6,33.7-16.8,56.1c-1.7,30.3,5.1,58.7,12.2,88.8c1.2,5.2,2.5,10.6,3.7,15.9l0,0.1c7.2,67.3-41.2,111.9-88,155
					c-12.2,11.2-23.7,21.8-34.3,32.8C587.4,1874.1,573.1,1897.1,566.3,1920z"/>
			</g>
			<g>
				<path class="st1" d="M727.6,1706.3l-1.1-1.7c8.4-5.3,16.2-11.5,23.3-18.5l1.4,1.4C744.1,1694.6,736.2,1700.9,727.6,1706.3z"/>
			</g>
			<g>
				<path class="st1" d="M659.9,1803.6l-1.3-1.6c5.7-4.6,14.6-10.8,22.3-14.4c2-0.9,4-1.7,6-2.4c0.6-0.6,2.2-1.3,6.5-3
					c0.7-0.3,1.4-0.5,2-0.8c11.7-4.6,22.3-11.2,31.5-19.6c3.4-3.1,6.6-6.5,9.6-9.7c2.3-2.4,4.7-4.9,7.1-7.3
					c7.9-7.7,17.1-14.9,28-21.9c8.1-5.1,15-8.8,21.7-11.4c15.8-6.2,34.2-8,53.3-5.3c16.8,2.4,32.3,8.9,50.4,17.9l-0.9,1.8
					c-2-1-5.2-0.7-8.1-0.3c-0.9,0.1-1.8,0.2-2.6,0.2c-1,0.1-1.9,0-2.9-0.1l0.1,0.6c-4.2,0.9-8.8,2.5-13.6,4.8
					c-13,6.3-24.4,15.6-35.5,24.7c-10.6,8.7-21.6,17.7-34.1,24.1c-15.5,7.9-34.2,12.1-55.4,12.5c-19.7,0.4-39.6-2.6-56.7-5.4
					c0,0-0.1,0-0.1,0c-1.9,0.6-3.9,1.4-5.8,2.3C674.2,1792.9,665.3,1799.2,659.9,1803.6z M692.2,1785.8c16,2.6,34.2,5,52.2,4.7
					c20.9-0.4,39.3-4.5,54.5-12.3c12.2-6.2,23.1-15.2,33.7-23.8c11.2-9.1,22.7-18.6,35.9-25c3.7-1.8,7.3-3.2,10.8-4.2
					c-0.6-0.1-1.2-0.3-1.8-0.4c-0.8-0.2-1.7-0.4-2.6-0.6c-7.3-1.6-14.9-2.2-22.6-1.8c-15.4,0.7-30.2,5.4-42.9,13.4
					c-5.2,3.3-10.2,7.3-15,11.1c-3.4,2.8-7,5.6-10.7,8.2c-19.7,14-44.3,23.2-75.3,27.9c-1,0.2-2.1,0.3-3.1,0.5
					C700.7,1784.1,696.4,1784.7,692.2,1785.8z M829.7,1707c-12.6,0-24.7,2.1-35.5,6.4c-6.6,2.6-13.4,6.1-21.3,11.2
					c-10.8,6.9-19.9,14-27.7,21.6c-2.4,2.4-4.8,4.9-7.1,7.3c-3.1,3.3-6.3,6.7-9.7,9.8c-8.8,8.1-18.9,14.6-30,19.2
					c2.2-0.4,4.5-0.7,6.8-1.1c1-0.2,2-0.3,3.1-0.5c30.7-4.7,55-13.7,74.4-27.6c3.6-2.6,7.2-5.4,10.6-8.1c4.8-3.9,9.8-7.8,15.1-11.2
					c12.9-8.2,28.1-13,43.8-13.7c7.8-0.4,15.6,0.3,23.1,1.9c0.9,0.2,1.8,0.4,2.7,0.6c2.6,0.7,4.9,1.2,7.6,1.1c0.7,0,1.6-0.1,2.5-0.2
					c1-0.1,2-0.2,2.9-0.3c-15.7-7.5-29.6-13-44.5-15.1C840.8,1707.4,835.2,1707,829.7,1707z"/>
			</g>
			<g>
				<path class="st1" d="M632.4,1828.8l-1.4-1.4c9.7-9.7,20.6-21.5,27.2-36.1c12-26.6,16.1-55.9,11.1-80.4
					c-4.4-21.6-21.8-56.4-49.7-57.5l0.1-2c29.1,1.2,47.1,36.8,51.6,59.1c5,24.9,0.9,54.6-11.3,81.6
					C653.2,1807,642.2,1819,632.4,1828.8z"/>
			</g>
			<g>
				<path class="st1" d="M563.3,1919.8l-2-0.4c0.6-3.1,1.3-6.2,2-9.3c2.2-10.1,4.5-20.5,5.1-30.8c0.6-11.3-2.7-26.5-11.5-35
					c-5-4.9-11.2-7.1-18.4-6.4c-9.8,0.9-18,8.3-18.9,17.4c-0.4,4.3,1.1,8.8,4.2,12c2.8,2.9,6.3,4.4,10,4.2l0.1,2
					c-4.3,0.2-8.4-1.5-11.6-4.8c-3.5-3.7-5.3-8.8-4.8-13.6c1-10,10-18.3,20.7-19.2c7.8-0.7,14.5,1.7,20,7c9.3,9,12.8,24.9,12.1,36.6
					c-0.6,10.5-2.9,21-5.1,31.2C564.6,1913.6,563.9,1916.7,563.3,1919.8z"/>
			</g>
		</g>
		<g>
			<g>
				<g>
					<path class="st1" d="M293.6,1693.8l-3.5-2.1c-22.6-13.5-41.3-36.9-52.8-65.8c-9-22.8-14.1-48.6-16.3-83.6l-0.1-1
						c-1.3-20.3-2.8-43.2-17.6-57.1l-3.4-3.1l4.4,1.5c53.4,17.8,90.3,74.5,85.9,132c-0.5,6.5-1.5,13.3-2.5,19.9
						c-3,19.6-6,39.8,3.8,55.9L293.6,1693.8z M207.7,1485.8c12.6,14.5,14,36.1,15.2,55.3l0.1,1c2.2,34.9,7.2,60.5,16.2,83
						c10.8,27.1,28,49.3,48.8,62.8c-7.9-16.1-5-35.3-2.2-53.9c1-6.6,2-13.4,2.5-19.8C292.5,1559.2,258,1504.8,207.7,1485.8z"/>
				</g>
				<g>
					<path class="st1" d="M288.8,1690c-14.5-12.6-22.4-31.8-28.7-47.2c-3.8-9.1-8-19.5-10.7-30c-3.3-13.2-4.3-27-5.3-40.4
						c-1.1-16.1-2.3-32.8-7.7-48.2c-3.2-9.2-7.8-17.8-13.7-25.5c-6.1-8-12.3-12.8-18.8-14.4l0.5-1.9c7,1.8,13.5,6.7,19.9,15.2
						c6,7.9,10.7,16.7,14,26.1c5.4,15.6,6.6,32.4,7.8,48.7c0.9,13.3,1.9,27,5.2,40c2.6,10.4,6.9,20.7,10.6,29.7
						c6.3,15.2,14,34.1,28.2,46.4L288.8,1690z"/>
				</g>
			</g>
			<g>
				<g>
					<path class="st1" d="M460.1,1921.7H353l-0.2-0.2c-32.8-21.4-54.7-55.9-58.6-92.2l-0.5-4.6l2.3,3.9c10.4,17.4,32.5,23.7,52,29.3
						l1,0.3c33.8,9.6,57.9,20,78.3,33.7c12.2,8.2,22.8,17.6,31.5,28L460.1,1921.7z M353.6,1919.7h102.2c-8.4-9.6-18.3-18.4-29.7-26
						c-20.2-13.6-44.1-23.9-77.7-33.5l-1-0.3c-18.5-5.3-39.3-11.2-50.8-26.6C301.6,1867.4,322.7,1899.4,353.6,1919.7z"/>
				</g>
				<g>
					<path class="st1" d="M439.1,1920.5c-9.8-6.8-22-15.3-35.2-20.8c-10-4.2-20.6-7.4-30.9-10.4c-11.3-3.3-22.9-6.7-33.9-11.6
						c-11-4.9-20.6-11.4-28.7-19.2c-7.5-7.3-16.2-17.2-16.6-29.1l2-0.1c0.4,11.2,8.8,20.7,16,27.7c7.9,7.6,17.3,13.9,28.1,18.8
						c10.8,4.9,22.4,8.3,33.6,11.5c10.3,3,21,6.2,31.1,10.4c13.3,5.6,25.6,14.2,35.5,21L439.1,1920.5z"/>
				</g>
			</g>
			<g>
				<g>
					<path class="st1" d="M428.7,1854.3l-2.2-3.4c-15.7-23.7-23.2-55.2-20.9-88.7c1.8-26.4,8.8-53.9,22.9-89.1l0.4-1
						c8.2-20.4,17.4-43.5,9.4-63.9l-1.7-4.3l3.3,3.2c43.8,42.1,53.4,114.6,22.4,168.5c-3.5,6.1-7.7,12.3-11.7,18.2
						c-12,17.7-24.4,36.1-22.3,56.4L428.7,1854.3z M441.6,1611.6c5.7,20.1-3,41.9-10.8,61.3l-0.4,1c-14,35-21,62.3-22.8,88.5
						c-2.1,31.6,4.5,61.3,18.5,84.2c-0.3-19.4,11.5-36.9,22.9-53.8c4-5.9,8.2-12.1,11.6-18.1
						C490.5,1722.8,482.1,1653.5,441.6,1611.6z"/>
				</g>
				<g>
					<path class="st1" d="M426.1,1848.6c-8.3-19-7.1-41.4-6.1-59.3c0.6-10.6,1.2-22.7,3.5-34.2c2.9-14.4,8.3-28.3,13.6-41.8
						c6.4-16.3,13-33.1,14.9-50.6c1.2-10.5,0.6-21-1.5-31.3c-2.2-10.7-6-18.2-11.6-22.9l1.3-1.5c6,5,10,12.8,12.3,24
						c2.2,10.5,2.7,21.2,1.5,31.9c-2,17.8-8.6,34.7-15,51.1c-5.3,13.4-10.7,27.2-13.5,41.5c-2.3,11.4-2.9,23.4-3.5,33.9
						c-1,17.7-2.2,39.8,5.9,58.4L426.1,1848.6z"/>
				</g>
			</g>
			<g>
				<path class="st1" d="M470.4,1920.1c-1.1-3.4-2.4-6.8-3.8-10.2c-12.6-31.1-35.3-55.3-53.7-72.9c-7.3-7-14.9-13.9-22.2-20.5
					c-15.3-13.9-31.2-28.3-44.9-44.3c-23.7-27.6-36.7-53.9-40-80.3c-2.6-21.1,2.4-42,7.3-62.2c2.9-12,5.9-24.4,7.2-36.6
					c3.9-35.7-1.3-66-15.5-90l1.7-1c14.4,24.4,19.8,55,15.8,91.2c-1.4,12.4-4.4,24.8-7.3,36.8c-4.8,20-9.8,40.7-7.3,61.5
					c3.2,26,16.1,52,39.5,79.3c13.6,15.9,29.5,30.3,44.7,44.1c7.4,6.7,15,13.6,22.2,20.6c18.5,17.8,41.4,42.2,54.2,73.6
					c1.4,3.4,2.7,6.9,3.8,10.3L470.4,1920.1z"/>
			</g>
			<g>
				<path class="st1" d="M309,1706.3c-8.5-5.3-16.5-11.6-23.6-18.7l1.4-1.4c7.1,7,14.9,13.2,23.3,18.5L309,1706.3z"/>
			</g>
			<g>
				<path class="st1" d="M376.8,1803.6c-5.4-4.3-14.3-10.6-21.9-14.2c-2-0.9-3.9-1.7-5.8-2.3c0,0-0.1,0-0.1,0
					c-17.1,2.8-36.9,5.7-56.7,5.4c-21.2-0.4-39.9-4.6-55.4-12.5c-12.4-6.3-23.4-15.4-34.1-24.1c-11.1-9.1-22.5-18.4-35.5-24.7
					c-4.8-2.3-9.3-3.9-13.6-4.8l0.1-0.6c-0.9,0.1-1.9,0.1-2.9,0.1c-0.8,0-1.7-0.1-2.6-0.2c-2.8-0.3-6-0.7-8.1,0.3c0,0,0,0,0,0
					l-0.9-1.8l0,0c0,0,0,0,0,0c18.1-9,33.6-15.5,50.4-17.9c19.1-2.7,37.5-0.9,53.3,5.3c6.7,2.6,13.6,6.2,21.7,11.4
					c11,7,20.1,14.1,28,21.9c2.4,2.4,4.8,4.9,7.1,7.3c3.1,3.3,6.3,6.6,9.7,9.7c9.2,8.5,19.8,15.1,31.5,19.6c0.6,0.2,1.3,0.5,2,0.8
					c4.3,1.6,6,2.3,6.5,3c2,0.7,4,1.4,6,2.4c7.7,3.6,16.6,9.8,22.3,14.4L376.8,1803.6z M157.4,1725.2c3.5,1,7.1,2.4,10.8,4.2
					c13.2,6.4,24.7,15.8,35.9,25c10.5,8.6,21.5,17.6,33.7,23.8c15.3,7.8,33.6,11.9,54.5,12.3c18,0.3,36.2-2.1,52.2-4.7
					c-4.2-1-8.6-1.7-13.3-2.4c-1-0.2-2-0.3-3.1-0.5c-31-4.7-55.6-13.9-75.3-27.9c-3.7-2.6-7.2-5.5-10.7-8.2
					c-4.8-3.8-9.7-7.8-15-11.1c-12.6-8-27.4-12.7-42.9-13.4c-7.7-0.4-15.3,0.3-22.6,1.8c-0.9,0.2-1.8,0.4-2.6,0.6
					C158.6,1724.9,158,1725,157.4,1725.2z M180.2,1720.2c1.4,0,2.9,0,4.3,0.1c15.8,0.8,30.9,5.5,43.8,13.7
					c5.3,3.4,10.3,7.4,15.1,11.2c3.4,2.7,7,5.6,10.6,8.1c19.4,13.9,43.8,22.9,74.4,27.6c1,0.2,2.1,0.3,3.1,0.5
					c2.3,0.3,4.6,0.7,6.8,1.1c-11.1-4.6-21.2-11.1-30-19.2c-3.4-3.1-6.6-6.5-9.7-9.8c-2.3-2.4-4.7-4.9-7.1-7.3
					c-7.8-7.6-16.9-14.7-27.7-21.6c-8-5.1-14.7-8.6-21.3-11.2c-15.5-6.1-33.6-7.8-52.3-5.2c-14.9,2.1-28.8,7.6-44.5,15.1
					c1,0.1,2,0.2,2.9,0.3c0.9,0.1,1.7,0.2,2.5,0.2c2.7,0.2,5-0.4,7.6-1.1c0.9-0.2,1.8-0.4,2.7-0.6
					C167.5,1720.8,173.8,1720.2,180.2,1720.2z"/>
			</g>
			<g>
				<path class="st1" d="M404.3,1828.8c-9.9-9.8-20.9-21.8-27.6-36.7c-12.2-27-16.3-56.7-11.3-81.6c4.5-22.2,22.5-57.9,51.6-59.1
					l0.1,2c-28,1.1-45.4,35.8-49.7,57.5c-5,24.5-0.9,53.8,11.1,80.4c6.6,14.6,17.4,26.5,27.2,36.1L404.3,1828.8z"/>
			</g>
			<g>
				<path class="st1" d="M473.4,1919.8c-0.6-3.1-1.3-6.2-2-9.3c-2.2-10.2-4.5-20.7-5.1-31.2c-0.7-11.7,2.8-27.6,12.1-36.6
					c5.5-5.3,12.2-7.7,20-7c10.8,0.9,19.7,9.2,20.7,19.2c0.5,4.8-1.3,9.9-4.8,13.6c-3.2,3.3-7.3,5-11.6,4.8l0.1-2
					c3.7,0.2,7.2-1.3,10-4.2c3.1-3.3,4.7-7.8,4.2-12c-0.9-9.1-9.1-16.6-18.9-17.4c-7.2-0.6-13.4,1.5-18.4,6.4
					c-8.8,8.6-12.2,23.8-11.5,35c0.6,10.3,2.9,20.8,5.1,30.8c0.7,3,1.4,6.2,2,9.3L473.4,1919.8z"/>
			</g>
		</g>
	</g>
	<g>
		<g>
			<g>
				<path class="st1" d="M249.8,884.4l-3-2.7c-4.3-3.8-10.7-3.9-16.8-4.1c-2.1-0.1-4.3-0.1-6.4-0.3c-18.5-1.8-34.4-16.7-37-34.7
					l-0.7-4.5l2.5,3.9c3.3,5.2,10.3,6.9,16.4,8.4l0.3,0.1c10.9,2.7,18.7,5.7,25.4,9.8c8.5,5.3,14.9,12.5,17.9,20.5L249.8,884.4z
					 M189.2,846c4,15.4,18.2,27.7,34.5,29.3c2,0.2,4.1,0.3,6.3,0.3c5.2,0.1,10.6,0.3,15.1,2.6c-3.2-6.3-8.7-12-15.7-16.3
					c-6.5-4-14.1-7-24.8-9.6l-0.3-0.1C199,851,193.2,849.6,189.2,846z"/>
			</g>
			<g>
				<path class="st1" d="M246.1,881.1c-3-5-8.1-8.2-12.7-11.1c-3.1-2-5.7-3.6-8.6-4.9c-3.8-1.7-8-2.8-12.1-3.8
					c-5.1-1.3-10.3-2.6-14.9-5.2c-2.8-1.6-5.3-3.6-7.5-5.9c-2.4-2.6-3.6-5-3.8-7.5l2-0.2c0.2,2,1.2,4,3.3,6.2c2,2.2,4.4,4.1,7,5.6
					c4.4,2.5,9.5,3.8,14.4,5c4.1,1,8.4,2.1,12.4,3.9c3.2,1.5,6.4,3.4,8.9,5c4.5,2.9,10.1,6.4,13.4,11.8L246.1,881.1z"/>
			</g>
		</g>
		<g>
			<g>
				<path class="st1" d="M323.4,957.5l-3.5-1.9c-7.4-4.1-13.8-11.4-17.8-20.5c-3.2-7.2-5.1-15.3-6.3-26.5l0-0.3
					c-0.6-6.3-1.4-13.4-6-17.4l-3.5-3l4.4,1.3c17.4,5.1,30,22.9,29.3,41.4c-0.1,2.1-0.3,4.3-0.6,6.4c-0.7,6.1-1.4,12.4,1.8,17.2
					L323.4,957.5z M293.6,892.3c3,4.5,3.6,10.4,4.1,15.8l0,0.3c1.1,10.9,3,18.9,6.1,25.9c3.3,7.5,8.2,13.7,14,17.7
					c-1.7-4.7-1.1-10.1-0.5-15.3c0.2-2.2,0.5-4.2,0.5-6.3C318.5,914.1,308.3,898.3,293.6,892.3z"/>
			</g>
			<g>
				<path class="st1" d="M319.3,955c-4.9-3.9-7.6-10-9.9-14.8c-1.3-2.9-2.8-6.1-3.8-9.5c-1.2-4.2-1.7-8.6-2.2-12.9
					c-0.6-5-1.1-10.3-3-15c-1.1-2.8-2.6-5.4-4.5-7.7c-1.9-2.3-3.8-3.7-5.7-4.1l0.4-2c2.4,0.5,4.6,2.1,6.9,4.8
					c2.1,2.5,3.7,5.3,4.9,8.3c1.9,5,2.5,10.3,3.1,15.5c0.5,4.2,0.9,8.5,2.1,12.5c0.9,3.2,2.3,6.2,3.7,9.2c2.3,4.9,4.8,10.5,9.3,14.1
					L319.3,955z"/>
			</g>
		</g>
		<g>
			<g>
				<path class="st1" d="M249.7,942.5c-14.7,0-29.2-7-37.3-19.1l-2.6-3.8l3.9,2.4c5.7,3.5,13.3,1.9,20,0.5l0.3-0.1
					c11.9-2.5,20.9-3.2,29.3-2.2c10.7,1.2,20.3,5.3,26.9,11.6l2.9,2.8l-3.9-1.1c-6-1.7-12.3,1.1-18.4,3.8c-2.1,0.9-4.3,1.9-6.4,2.7
					C259.8,941.7,254.8,942.5,249.7,942.5z M216.4,925.3c11,13.3,30.8,18.8,47.6,12.8c2.1-0.7,4.2-1.7,6.2-2.6
					c5.3-2.3,10.7-4.7,16.1-4.5c-6.1-4.7-14.2-7.8-23.1-8.8c-8.2-0.9-17-0.2-28.7,2.2l-0.3,0.1C228.4,925.6,222,927,216.4,925.3z"/>
			</g>
			<g>
				<path class="st1" d="M288.4,933.1c-5.2-3.5-12.1-4.3-17.6-5c-3.3-0.4-7-0.9-10.7-0.8c-4.5,0.1-9.1,1-13.6,1.9
					c-5.5,1.1-11.2,2.2-16.9,1.9c-3.5-0.2-6.9-1-10.1-2.3c-3.5-1.4-5.8-3.2-7.1-5.5l1.7-1c1.1,1.9,3.1,3.4,6.2,4.6
					c3,1.2,6.2,1.9,9.5,2.2c5.5,0.4,11-0.8,16.4-1.8c4.5-0.9,9.2-1.8,13.9-1.9c3.8-0.1,7.6,0.4,11,0.8c5.7,0.7,12.8,1.6,18.5,5.3
					L288.4,933.1z"/>
			</g>
		</g>
		<g>
			<path class="st1" d="M336.5,957.9c-13.8,0-27.2-4.5-37.3-13.1c-8.1-6.9-13.9-16.1-19.5-25c-1.9-3-3.9-6.1-5.9-9.1
				c-9.9-14.6-20.7-22.9-32-24.6c-4.3-0.6-8.9-0.3-13.2,0c-1.3,0.1-2.5,0.2-3.8,0.2c-16,0.8-29-2.7-37.7-10.2l1.3-1.5
				c10.5,9,25.6,10.3,36.3,9.7c1.3-0.1,2.5-0.2,3.8-0.2c4.5-0.3,9.1-0.6,13.7,0c11.9,1.8,23.1,10.3,33.4,25.5c2,3,4,6.1,5.9,9.2
				c5.5,8.8,11.2,17.8,19.1,24.6c15.4,13.2,39.2,16.4,59.2,8l0.8,1.8C352.9,956.3,344.7,957.9,336.5,957.9z"/>
		</g>
		<g>
			<path class="st1" d="M250,888.1c-1.1-2.8-2.6-5.6-4.4-8.2l1.6-1.1c1.9,2.7,3.4,5.6,4.6,8.5L250,888.1z"/>
		</g>
		<g>
			<path class="st1" d="M276.6,914.8c-1.1-2.1-2.6-5.2-3.3-7.9c-0.2-0.7-0.3-1.3-0.4-1.9c-0.2-0.4-0.4-1.2-0.6-2.4l-0.1-0.6
				c-0.8-3.8-2.2-7.4-4.3-10.7c-0.8-1.2-1.7-2.4-2.5-3.6c-0.6-0.9-1.3-1.7-1.9-2.6c-2-2.9-3.7-6.2-5.3-10.1
				c-1.2-2.9-1.9-5.3-2.4-7.5c-1.1-5.4-0.6-11.3,1.3-17.3c1.9-5.8,5.4-10.7,8.5-14.9l1.6,1.2c-0.3,0.4-0.4,1.4-0.4,2.1
				c0,0.3,0,0.6-0.1,0.8c0,0.3-0.1,0.5-0.1,0.8l0.2,0c0,1.3,0.3,2.8,0.7,4.3c1.2,4.3,3.5,8.4,5.7,12.3c2.1,3.8,4.4,7.8,5.7,12.1
				c1.6,5.4,1.9,11.5,0.9,18.3c-1,6.2-3,12.2-4.8,17.4c0.1,0.6,0.2,1.1,0.4,1.7c0.7,2.5,2.1,5.6,3.2,7.5L276.6,914.8z M265.2,843.8
				c-0.7,1.9-1.2,3.9-1.4,5.9c-0.6,4.7,0,9.5,1.8,13.8c0.7,1.8,1.7,3.5,2.6,5.2c0.7,1.2,1.4,2.5,2,3.8c3.3,7,4.8,15.3,4.6,25.4l0,1
				c0,0,0,0.1,0,0.1c1.2-3.8,2.3-7.9,3-12c1-6.4,0.8-12.3-0.8-17.4c-1.2-4.1-3.4-8-5.5-11.7c-2.3-4-4.6-8.2-5.9-12.7
				C265.4,844.7,265.3,844.2,265.2,843.8z M264.5,840.3c-2.1,3.2-4.2,6.7-5.4,10.5c-1.8,5.6-2.3,11.2-1.3,16.3
				c0.4,2.1,1.1,4.4,2.3,7.1c1.5,3.7,3.2,6.9,5.1,9.7c0.6,0.9,1.2,1.7,1.8,2.5c0.9,1.2,1.8,2.4,2.6,3.7c1.3,2,2.3,4.1,3.2,6.4
				c0.1-9.2-1.4-16.8-4.4-23.2c-0.6-1.3-1.3-2.5-1.9-3.7c-0.9-1.7-1.9-3.5-2.7-5.4c-1.9-4.6-2.6-9.7-1.9-14.8c0.3-2.5,1-4.9,1.9-7.3
				c0.1-0.3,0.2-0.6,0.4-0.8C264.2,841,264.3,840.6,264.5,840.3z"/>
		</g>
		<g>
			<path class="st1" d="M283,924.9c-2.4-3.5-5.5-7.5-9.6-10.3c-7.5-5.2-16.3-8-24.1-7.8c-6.8,0.2-18.2,3.5-20,11.8l-2-0.4
				c2.1-9.5,14.3-13.2,21.9-13.4c8.2-0.2,17.4,2.8,25.2,8.2c4.4,3,7.6,7.1,10.1,10.8L283,924.9z"/>
		</g>
		<g>
			<path class="st1" d="M287.5,962.3c-0.1,0-0.2,0-0.3,0c-2.7-0.1-5.2-2-6.2-4.7c-0.6-1.5-0.7-3.2-0.4-4.8c0.6-2.9,2.9-5.5,6-6.8
				c2.5-1.1,5.6-1.3,8.9-0.7c2.9,0.5,5.6,1.6,8.2,2.6l6,2.3c2.3,0.9,14.7,4.5,16.9,4.7l-0.2,2c-2.5-0.3-15.2-4-17.4-4.8l-5.9-2.3
				c-2.6-1-5.2-2-7.8-2.5c-2.9-0.5-5.6-0.3-7.7,0.6c-2.5,1-4.3,3.1-4.8,5.4c-0.3,1.2-0.1,2.5,0.3,3.6c0.8,1.9,2.6,3.3,4.5,3.4
				c1.9,0.1,3.8-1.4,4-3.1l2,0.2C293,960.1,290.3,962.3,287.5,962.3z"/>
		</g>
	</g>
	<g>
		<g>
			<g>
				<path class="st1" d="M834.6,884.4l1.4-3.8c3-7.9,9.4-15.2,17.9-20.5c6.7-4.1,14.5-7.1,25.4-9.8l0.3-0.1
					c6.1-1.5,13.1-3.2,16.4-8.4l2.5-3.9l-0.7,4.5c-2.6,18-18.6,32.9-37,34.7c-2.1,0.2-4.3,0.3-6.4,0.3c-6.1,0.2-12.5,0.3-16.8,4.1
					L834.6,884.4z M895.2,846c-4,3.6-9.8,5-15.1,6.2l-0.3,0.1c-10.7,2.6-18.3,5.6-24.8,9.6c-7,4.3-12.5,10-15.7,16.3
					c4.4-2.3,9.8-2.4,15.1-2.6c2.2-0.1,4.3-0.1,6.3-0.3C877,873.7,891.2,861.4,895.2,846z"/>
			</g>
			<g>
				<path class="st1" d="M838.3,881.1l-1.7-1c3.2-5.4,8.8-8.9,13.4-11.8c2.5-1.6,5.6-3.6,8.9-5c4-1.8,8.3-2.9,12.4-3.9
					c4.9-1.2,10-2.5,14.4-5c2.6-1.5,5-3.3,7-5.6c2.1-2.2,3.1-4.3,3.3-6.2l2,0.2c-0.2,2.4-1.4,4.9-3.8,7.5c-2.2,2.4-4.7,4.4-7.5,5.9
					c-4.7,2.6-9.9,3.9-14.9,5.2c-4.1,1-8.3,2.1-12.1,3.8c-3.1,1.4-6.2,3.3-8.6,4.9C846.4,872.8,841.3,876.1,838.3,881.1z"/>
			</g>
		</g>
		<g>
			<g>
				<path class="st1" d="M761,957.5l2.2-3.4c3.2-4.8,2.5-11.1,1.8-17.2c-0.2-2.1-0.5-4.3-0.6-6.4c-0.7-18.6,11.9-36.4,29.3-41.4
					l4.4-1.3l-3.5,3c-4.7,4-5.4,11.1-6,17.4l0,0.3c-1.1,11.1-3.1,19.3-6.3,26.5c-4.1,9.1-10.4,16.4-17.8,20.5L761,957.5z
					 M790.8,892.3c-14.7,6-25,21.8-24.4,38.2c0.1,2,0.3,4.1,0.5,6.3c0.6,5.2,1.2,10.6-0.5,15.3c5.8-4,10.7-10.2,14-17.7
					c3.1-7,5-15,6.1-25.9l0-0.3C787.3,902.7,787.9,896.7,790.8,892.3z"/>
			</g>
			<g>
				<path class="st1" d="M765.1,955l-1.2-1.6c4.5-3.6,7.1-9.2,9.3-14.1c1.3-2.8,2.7-6,3.7-9.2c1.2-4,1.7-8.3,2.1-12.5
					c0.6-5.2,1.2-10.5,3.1-15.5c1.2-3,2.8-5.8,4.9-8.3c2.2-2.7,4.5-4.3,6.9-4.8l0.4,2c-1.9,0.4-3.8,1.8-5.7,4.1
					c-1.9,2.3-3.5,4.9-4.5,7.7c-1.8,4.7-2.4,9.9-3,15c-0.5,4.3-1,8.7-2.2,12.9c-1,3.3-2.5,6.6-3.8,9.5
					C772.7,945,770,951.1,765.1,955z"/>
			</g>
		</g>
		<g>
			<g>
				<path class="st1" d="M834.6,942.5c-5,0-10-0.8-14.8-2.6c-2.1-0.8-4.3-1.7-6.4-2.7c-6.1-2.7-12.4-5.5-18.4-3.8l-3.9,1.1l2.9-2.8
					c6.6-6.3,16.2-10.4,26.9-11.6c8.4-0.9,17.4-0.2,29.3,2.2l0.3,0.1c6.7,1.4,14.3,3,20-0.5l3.9-2.4l-2.6,3.8
					C863.8,935.5,849.3,942.5,834.6,942.5z M798.9,930.9c5.2,0,10.3,2.3,15.3,4.5c2.1,0.9,4.2,1.9,6.2,2.6
					c16.8,6,36.5,0.5,47.6-12.8c-5.6,1.7-12,0.4-17.8-0.8l-0.3-0.1c-11.6-2.4-20.5-3.1-28.7-2.2c-8.9,1-17,4.1-23.1,8.8
					C798.4,931,798.6,930.9,798.9,930.9z"/>
			</g>
			<g>
				<path class="st1" d="M796,933.1l-1.1-1.7c5.6-3.7,12.7-4.6,18.5-5.3c3.4-0.4,7.2-0.9,11-0.8c4.7,0.1,9.4,1,13.9,1.9
					c5.4,1.1,10.9,2.2,16.4,1.8c3.3-0.2,6.4-0.9,9.5-2.2c3.1-1.2,5.1-2.7,6.2-4.6l1.7,1c-1.3,2.3-3.6,4.1-7.1,5.5
					c-3.2,1.3-6.6,2.1-10.1,2.3c-5.7,0.4-11.4-0.8-16.9-1.9c-4.4-0.9-9-1.8-13.6-1.9c-3.6-0.1-7.4,0.4-10.7,0.8
					C808.1,928.8,801.2,929.6,796,933.1z"/>
			</g>
		</g>
		<g>
			<path class="st1" d="M747.8,957.9c-8.1,0-16.3-1.6-24-4.8l0.8-1.8c20,8.4,43.8,5.2,59.2-8c7.9-6.7,13.6-15.8,19.1-24.6
				c1.9-3,3.9-6.2,5.9-9.2c10.3-15.1,21.5-23.7,33.4-25.5c4.6-0.7,9.2-0.4,13.7,0c1.3,0.1,2.5,0.2,3.8,0.2
				c10.8,0.5,25.8-0.7,36.3-9.7l1.3,1.5c-8.7,7.5-21.8,11-37.7,10.2c-1.3-0.1-2.5-0.2-3.8-0.2c-4.4-0.3-8.9-0.6-13.2,0
				c-11.3,1.7-22.1,10-32,24.6c-2,3-4,6.1-5.9,9.1c-5.6,8.9-11.4,18.1-19.5,25C775.1,953.4,761.6,957.9,747.8,957.9z"/>
		</g>
		<g>
			<path class="st1" d="M834.4,888.1l-1.9-0.8c1.2-3,2.8-5.9,4.6-8.5l1.6,1.1C837.1,882.5,835.6,885.3,834.4,888.1z"/>
		</g>
		<g>
			<path class="st1" d="M807.8,914.8l-1.8-1c1.3-2.4,2.6-5.4,3.2-7.5c0.2-0.6,0.3-1.2,0.4-1.7c-1.8-5.2-3.8-11.2-4.8-17.4
				c-1.1-6.8-0.8-12.9,0.9-18.3c1.3-4.3,3.5-8.3,5.7-12.1c2.2-3.9,4.5-8,5.7-12.3c0.4-1.5,0.7-3,0.7-4.3l0.2,0
				c-0.1-0.2-0.1-0.5-0.1-0.8c0-0.3,0-0.5-0.1-0.9c0-0.8-0.1-1.7-0.4-2.1l1.6-1.2c3.1,4.2,6.6,9.2,8.5,14.9c2,5.9,2.4,11.9,1.3,17.3
				c-0.4,2.3-1.2,4.6-2.4,7.5c-1.6,3.9-3.3,7.2-5.3,10.1c-0.6,0.9-1.2,1.7-1.9,2.6c-0.9,1.2-1.7,2.4-2.5,3.6
				c-2.1,3.2-3.5,6.9-4.3,10.7l-0.1,0.6c-0.2,1.2-0.4,1.9-0.6,2.4c-0.1,0.6-0.2,1.3-0.4,1.9C810.4,909.6,808.8,912.8,807.8,914.8z
				 M819.2,843.8c-0.1,0.4-0.2,0.9-0.3,1.3c-1.3,4.5-3.6,8.7-5.9,12.7c-2.1,3.7-4.3,7.6-5.5,11.7c-1.6,5.1-1.8,10.9-0.8,17.4
				c0.7,4.1,1.8,8.2,3,12c0,0,0-0.1,0-0.1l0-1c-0.2-10.1,1.3-18.3,4.6-25.4c0.6-1.3,1.3-2.6,2-3.8c0.9-1.7,1.9-3.4,2.6-5.2
				c1.8-4.3,2.4-9,1.8-13.8C820.4,847.7,819.9,845.7,819.2,843.8z M819.9,840.3c0.1,0.3,0.3,0.6,0.4,1c0.1,0.3,0.2,0.5,0.4,0.8
				c0.9,2.3,1.6,4.8,1.9,7.3c0.7,5.1,0,10.2-1.9,14.8c-0.8,1.9-1.8,3.7-2.7,5.4c-0.7,1.2-1.3,2.5-1.9,3.7c-3.1,6.4-4.5,14-4.4,23.2
				c0.8-2.2,1.9-4.3,3.2-6.4c0.8-1.3,1.7-2.5,2.6-3.7c0.6-0.8,1.2-1.7,1.8-2.5c1.9-2.8,3.6-6,5.1-9.7c1.1-2.8,1.9-5,2.3-7.1
				c1-5.1,0.6-10.7-1.3-16.3C824.1,847,822.1,843.5,819.9,840.3z"/>
		</g>
		<g>
			<path class="st1" d="M801.3,924.9l-1.6-1.1c2.5-3.7,5.7-7.8,10.1-10.8c7.9-5.4,17.1-8.4,25.2-8.2c7.7,0.2,19.9,3.9,21.9,13.4
				l-2,0.4c-1.8-8.3-13.3-11.6-20-11.8c-7.8-0.2-16.5,2.7-24.1,7.8C806.8,917.4,803.8,921.4,801.3,924.9z"/>
		</g>
		<g>
			<path class="st1" d="M796.9,962.3c-2.9,0-5.5-2.2-5.8-4.9l2-0.2c0.2,1.8,2.1,3.2,4,3.1c1.9-0.1,3.7-1.5,4.5-3.4
				c0.5-1.2,0.6-2.4,0.3-3.6c-0.5-2.3-2.3-4.3-4.8-5.4c-2.1-0.9-4.8-1.1-7.7-0.6c-2.7,0.5-5.3,1.5-7.8,2.5l-6,2.3
				c-2.2,0.9-14.9,4.6-17.4,4.8l-0.2-2c2.2-0.2,14.5-3.8,16.9-4.7l5.9-2.3c2.6-1,5.4-2.1,8.2-2.6c3.3-0.6,6.4-0.4,8.9,0.7
				c3.1,1.3,5.3,3.9,6,6.8c0.3,1.6,0.2,3.3-0.4,4.8c-1.1,2.7-3.6,4.6-6.2,4.7C797.1,962.3,797,962.3,796.9,962.3z"/>
		</g>
	</g>
	<g class="st2">
		<path class="st3" d="M376.1,889.6c1.6,0,3.1,0.1,4.5,0.4c1.4,0.3,2.6,0.7,3.6,1.1c1,0.4,1.8,0.9,2.4,1.4c0.6,0.5,0.9,0.9,0.9,1.4
			c0,0.9,0,2-0.1,3.3c-0.1,1.4-0.1,3-0.2,4.9l-1.6-0.1c0-0.2,0-0.3,0-0.5c0-0.2,0-0.3,0-0.5c0-0.9-0.1-1.7-0.3-2.4
			c-0.2-0.8-0.5-1.5-1-2.2c-0.5-0.7-1.1-1.3-1.8-1.9c-0.7-0.5-1.4-1-2.3-1.4s-1.7-0.7-2.6-0.8c-0.9-0.2-1.9-0.3-2.8-0.3
			c-1.7,0-3.2,0.3-4.5,0.8c-1.4,0.5-2.6,1.2-3.6,2.1c-1.1,0.9-2,2-2.8,3.2c-0.8,1.2-1.4,2.6-1.9,4.1c-0.5,1.5-0.9,3-1.2,4.6
			c-0.3,1.6-0.4,3.2-0.4,4.9c0,1.9,0.2,3.8,0.5,5.5c0.3,1.7,0.8,3.3,1.4,4.8s1.3,2.7,2.2,3.9c0.8,1.2,1.8,2.1,2.8,2.9
			c1,0.8,2.2,1.4,3.4,1.8c1.2,0.4,2.5,0.6,3.9,0.6c0.9,0,1.9-0.1,2.9-0.3c1-0.2,2-0.5,3-1c1-0.4,2.1-1,3.1-1.7
			c1-0.7,2.1-1.5,3.1-2.4c0.1,0,0.2,0.1,0.3,0.2s0.3,0.2,0.4,0.2c0.1,0.1,0.2,0.2,0.3,0.3c0.1,0.1,0.1,0.2,0.1,0.3
			c0,0.1,0,0.2-0.1,0.3c-1.2,1.3-2.4,2.5-3.7,3.4c-1.2,0.9-2.5,1.6-3.7,2.2c-1.2,0.6-2.5,1-3.8,1.2c-1.3,0.2-2.5,0.4-3.8,0.4
			c-1.7,0-3.3-0.2-4.8-0.7c-1.5-0.5-2.9-1.1-4.2-2c-1.3-0.9-2.5-1.9-3.5-3.1c-1.1-1.2-1.9-2.6-2.7-4.1c-0.7-1.5-1.3-3.2-1.7-5
			c-0.4-1.8-0.6-3.7-0.6-5.7c0-1.9,0.2-3.9,0.6-5.8c0.4-1.9,1-3.8,1.7-5.6c0.8-1.8,1.7-3.4,2.9-5c1.2-1.5,2.5-2.9,4.1-4
			c1.6-1.1,3.3-2,5.3-2.7C371.6,889.9,373.7,889.6,376.1,889.6z"/>
		<path class="st3" d="M412.5,927.5c0.1,0,0.2,0.1,0.3,0.2c0.1,0.1,0.2,0.1,0.3,0.2c0.1,0.1,0.2,0.2,0.3,0.3
			c0.1,0.1,0.1,0.2,0.1,0.3c0,0,0,0.1-0.1,0.1c-0.7,1-1.4,1.8-2.2,2.5c-0.8,0.7-1.6,1.3-2.5,1.8c-0.9,0.5-1.7,0.8-2.6,1.1
			c-0.9,0.2-1.8,0.3-2.6,0.3c-1.5,0-2.8-0.3-4.1-0.9c-1.2-0.6-2.3-1.4-3.2-2.5c-0.9-1.1-1.6-2.3-2.1-3.7c-0.5-1.4-0.8-2.9-0.8-4.6
			c0-1.3,0.1-2.6,0.4-4c0.3-1.3,0.7-2.6,1.3-3.8c0.6-1.2,1.2-2.3,2-3.3c0.8-1,1.7-1.9,2.7-2.7c1-0.8,2.1-1.4,3.3-1.8
			c1.2-0.4,2.5-0.6,3.9-0.6c0.9,0,1.8,0.1,2.6,0.4c0.8,0.2,1.6,0.6,2.2,1.1c0.6,0.5,1.1,1,1.5,1.7c0.4,0.7,0.6,1.5,0.6,2.3
			c0,1.3-0.4,2.4-1.2,3.3c-0.8,0.9-2,1.7-3.4,2.4c-1.4,0.7-3.2,1.2-5.1,1.6c-2,0.4-4.1,0.7-6.4,0.9v0.3c0,1.6,0.2,3,0.6,4.3
			c0.4,1.3,1,2.4,1.7,3.4c0.7,0.9,1.5,1.7,2.5,2.2c1,0.5,2,0.8,3.1,0.8c1.1,0,2.3-0.3,3.4-0.8C410.1,929.6,411.3,928.7,412.5,927.5z
			 M409,912.6c0-0.6-0.1-1.1-0.3-1.6c-0.2-0.5-0.5-0.9-0.8-1.3c-0.3-0.4-0.7-0.7-1.2-0.9c-0.5-0.2-1-0.3-1.5-0.3
			c-0.8,0-1.5,0.1-2.2,0.4c-0.7,0.3-1.2,0.7-1.8,1.2c-0.5,0.5-1,1.1-1.4,1.7c-0.4,0.7-0.7,1.3-1,2.1c-0.3,0.7-0.5,1.5-0.7,2.2
			c-0.2,0.8-0.3,1.5-0.4,2.2c1.8-0.1,3.3-0.3,4.7-0.6c1.4-0.3,2.6-0.7,3.5-1.2c1-0.5,1.7-1,2.2-1.7C408.7,914.2,409,913.4,409,912.6
			z"/>
		<path class="st3" d="M428.1,883.4c-0.2,2.1-0.5,4.3-0.7,6.5c-0.2,2.2-0.5,4.4-0.7,6.7c-0.2,2.3-0.4,4.5-0.6,6.8
			c-0.2,2.3-0.3,4.5-0.5,6.7c-0.1,2.2-0.2,4.4-0.3,6.5c-0.1,2.1-0.1,4.2-0.1,6.1c0,1.2,0,2.3,0,3.2c0,0.9,0.1,1.6,0.1,2.2
			c0.1,0.6,0.2,1.1,0.3,1.5c0.1,0.4,0.3,0.7,0.4,0.9c0.2,0.2,0.4,0.3,0.6,0.4c0.2,0.1,0.5,0.1,0.8,0.1c0.6,0,1.2-0.1,1.9-0.3
			c0.7-0.2,1.4-0.4,2.1-0.8l0.4,1c-0.4,0.4-1,0.7-1.7,1.1c-0.7,0.4-1.4,0.7-2.1,1s-1.5,0.6-2.2,0.8c-0.7,0.2-1.3,0.3-1.8,0.3
			c-0.7,0-1.2-0.2-1.6-0.5c-0.4-0.3-0.7-0.9-0.9-1.7c-0.2-0.8-0.3-1.8-0.4-3c-0.1-1.2-0.1-2.7-0.1-4.5c0-0.6,0-1.6,0.1-2.8
			c0-1.2,0.1-2.6,0.2-4.2c0.1-1.6,0.1-3.3,0.2-5.2c0.1-1.9,0.2-3.8,0.3-5.8c0.1-2,0.2-4,0.3-6.1c0.1-2,0.2-4,0.3-5.9
			c0.1-1.9,0.2-3.7,0.3-5.4c0.1-1.7,0.2-3.2,0.3-4.5c0-0.3,0.1-0.6,0.3-0.8c0.2-0.2,0.4-0.4,0.6-0.5c0.3-0.1,0.5-0.2,0.9-0.3
			c0.3-0.1,0.6-0.1,1-0.1C426.5,882.9,427.3,883,428.1,883.4z"/>
		<path class="st3" d="M454.5,927.5c0.1,0,0.2,0.1,0.3,0.2c0.1,0.1,0.2,0.1,0.3,0.2c0.1,0.1,0.2,0.2,0.3,0.3
			c0.1,0.1,0.1,0.2,0.1,0.3c0,0,0,0.1-0.1,0.1c-0.7,1-1.4,1.8-2.2,2.5c-0.8,0.7-1.6,1.3-2.5,1.8c-0.9,0.5-1.7,0.8-2.6,1.1
			c-0.9,0.2-1.8,0.3-2.6,0.3c-1.5,0-2.8-0.3-4.1-0.9c-1.2-0.6-2.3-1.4-3.2-2.5c-0.9-1.1-1.6-2.3-2.1-3.7c-0.5-1.4-0.8-2.9-0.8-4.6
			c0-1.3,0.1-2.6,0.4-4c0.3-1.3,0.7-2.6,1.3-3.8c0.6-1.2,1.2-2.3,2-3.3c0.8-1,1.7-1.9,2.7-2.7c1-0.8,2.1-1.4,3.3-1.8
			c1.2-0.4,2.5-0.6,3.9-0.6c0.9,0,1.8,0.1,2.6,0.4c0.8,0.2,1.6,0.6,2.2,1.1c0.6,0.5,1.1,1,1.5,1.7c0.4,0.7,0.6,1.5,0.6,2.3
			c0,1.3-0.4,2.4-1.2,3.3c-0.8,0.9-2,1.7-3.4,2.4c-1.4,0.7-3.2,1.2-5.1,1.6c-2,0.4-4.1,0.7-6.4,0.9v0.3c0,1.6,0.2,3,0.6,4.3
			c0.4,1.3,1,2.4,1.7,3.4c0.7,0.9,1.5,1.7,2.5,2.2c1,0.5,2,0.8,3.1,0.8c1.1,0,2.3-0.3,3.4-0.8C452.2,929.6,453.3,928.7,454.5,927.5z
			 M451.1,912.6c0-0.6-0.1-1.1-0.3-1.6c-0.2-0.5-0.5-0.9-0.8-1.3c-0.3-0.4-0.7-0.7-1.2-0.9c-0.5-0.2-1-0.3-1.5-0.3
			c-0.8,0-1.5,0.1-2.2,0.4c-0.7,0.3-1.2,0.7-1.8,1.2c-0.5,0.5-1,1.1-1.4,1.7c-0.4,0.7-0.7,1.3-1,2.1c-0.3,0.7-0.5,1.5-0.7,2.2
			c-0.2,0.8-0.3,1.5-0.4,2.2c1.8-0.1,3.3-0.3,4.7-0.6c1.4-0.3,2.6-0.7,3.5-1.2c1-0.5,1.7-1,2.2-1.7
			C450.8,914.2,451.1,913.4,451.1,912.6z"/>
		<path class="st3" d="M470.3,883.4c-0.2,2-0.5,4-0.7,6.1c-0.2,2.1-0.5,4.2-0.7,6.4c-0.2,2.2-0.4,4.3-0.6,6.5
			c-0.2,2.2-0.4,4.3-0.6,6.4c-0.2,2.1-0.3,4.2-0.4,6.2c-0.1,2-0.2,4-0.3,5.9l0.2,0c1-2.4,2-4.5,3.2-6.3c1.1-1.8,2.3-3.4,3.4-4.6
			c1.2-1.2,2.3-2.2,3.5-2.8c1.1-0.6,2.2-0.9,3.2-0.9c0.9,0,1.6,0.2,2.3,0.5c0.7,0.3,1.2,0.7,1.7,1.3c0.5,0.5,0.9,1.1,1.2,1.8
			c0.3,0.7,0.6,1.4,0.8,2.2c0.2,0.7,0.3,1.5,0.4,2.3c0.1,0.8,0.1,1.5,0.1,2.2c0,1.8-0.2,3.6-0.5,5.2c-0.4,1.6-0.9,3.1-1.5,4.4
			c-0.6,1.3-1.4,2.5-2.3,3.5c-0.9,1-1.8,1.9-2.9,2.6c-1,0.7-2.1,1.2-3.2,1.6c-1.1,0.4-2.3,0.5-3.4,0.5c-0.8,0-1.5-0.1-2.3-0.3
			c-0.8-0.2-1.5-0.4-2.3-0.8c-0.7-0.4-1.4-0.8-2.1-1.4c-0.7-0.6-1.2-1.2-1.8-2c-0.4,1.1-0.9,2-1.3,2.7c-0.4,0.7-0.9,1.2-1.2,1.7
			l-1-0.2c0.7-1.9,1.2-4.2,1.5-6.8c0.3-2.7,0.6-5.7,0.7-9c0.1-1.4,0.1-3.1,0.2-4.9c0.1-1.8,0.2-3.8,0.3-5.8c0.1-2,0.2-4.1,0.3-6.2
			c0.1-2.1,0.2-4.2,0.3-6.2s0.2-3.9,0.3-5.7c0.1-1.8,0.2-3.4,0.3-4.8c0-0.3,0.1-0.6,0.3-0.8c0.2-0.2,0.4-0.4,0.6-0.5
			c0.3-0.1,0.6-0.2,0.9-0.3c0.3-0.1,0.7-0.1,1-0.1C468.7,882.9,469.5,883,470.3,883.4z M482.5,918.2c0-0.8-0.1-1.7-0.2-2.6
			s-0.3-1.7-0.6-2.4c-0.3-0.7-0.6-1.3-1.1-1.8c-0.5-0.5-1-0.7-1.6-0.7c-0.8,0-1.5,0.2-2.2,0.6c-0.7,0.4-1.4,0.9-2.1,1.5
			c-0.7,0.6-1.3,1.4-2,2.2c-0.6,0.8-1.2,1.7-1.8,2.6c-0.6,0.9-1,1.8-1.5,2.8c-0.4,0.9-0.8,1.8-1.1,2.7c-0.3,0.8-0.6,1.6-0.7,2.3
			c-0.2,0.7-0.3,1.2-0.3,1.6c0.2,0.8,0.5,1.5,0.9,2.1c0.4,0.6,0.9,1.2,1.4,1.6c0.6,0.4,1.2,0.8,1.8,1c0.7,0.2,1.4,0.4,2.1,0.4
			c1.2,0,2.4-0.3,3.5-0.9c1.1-0.6,2.1-1.5,2.9-2.7s1.5-2.6,1.9-4.4C482.2,922.4,482.5,920.4,482.5,918.2z"/>
		<path class="st3" d="M496.3,933.7l-0.3,0c0.1-1.2,0.2-2.5,0.3-3.8c0.1-1.4,0.2-2.8,0.2-4.2c0.1-1.4,0.1-2.8,0.2-4.2
			c0.1-1.4,0.1-2.7,0.1-3.9c0-1.2,0.1-2.3,0.1-3.3s0-1.7,0-2.3c0-0.5,0-0.9-0.1-1.2s-0.1-0.6-0.3-0.8s-0.3-0.4-0.6-0.5
			c-0.2-0.1-0.6-0.2-1-0.2c-0.2,0-0.4,0-0.6,0c-0.2,0-0.5,0.1-0.7,0.1c-0.3,0-0.6,0.1-0.9,0.2c-0.3,0.1-0.7,0.2-1.2,0.3l-0.3-1.3
			c2.1-0.7,3.7-1.3,5-1.6c1.3-0.3,2.1-0.5,2.6-0.5c0.8,0,1.4,0.2,1.8,0.7c0.4,0.5,0.5,1.2,0.5,2.1c0,0.1,0,0.3,0,0.8
			c0,0.4-0.1,1-0.1,1.6c0,0.7-0.1,1.5-0.2,2.3c-0.1,0.9-0.1,1.8-0.2,2.9c-0.1,1-0.2,2.1-0.3,3.2c-0.1,1.1-0.2,2.2-0.3,3.3l0.2,0
			c0.6-2.4,1.3-4.7,2-6.8c0.7-2.1,1.6-3.9,2.5-5.5c0.9-1.5,2-2.8,3.1-3.6c1.1-0.9,2.3-1.3,3.7-1.3c0.5,0,0.9,0.1,1.3,0.2
			s0.8,0.4,1.1,0.6c0.3,0.3,0.5,0.6,0.7,0.9c0.2,0.4,0.3,0.8,0.3,1.2c0,0.6-0.1,1.1-0.4,1.6c-0.2,0.5-0.6,1-1.1,1.4h-0.1
			c-0.5-0.4-1-0.7-1.5-0.9c-0.5-0.2-1-0.3-1.5-0.3c-0.6,0-1.1,0.1-1.6,0.3c-0.5,0.2-1,0.5-1.4,0.9c-0.7,0.6-1.4,1.5-2,2.6
			c-0.6,1.1-1.2,2.2-1.7,3.5c-0.5,1.3-1,2.6-1.4,4.1c-0.4,1.4-0.7,2.8-1,4.1c-0.3,1.3-0.5,2.6-0.7,3.8c-0.2,1.2-0.3,2.2-0.4,3
			L496.3,933.7z"/>
		<path class="st3" d="M516.9,922.6c0-1.2,0.1-2.5,0.4-3.8c0.3-1.3,0.6-2.5,1.2-3.7c0.5-1.2,1.1-2.3,1.9-3.4c0.7-1.1,1.6-2,2.6-2.8
			c1-0.8,2.1-1.4,3.3-1.9c1.2-0.5,2.5-0.7,3.9-0.7c1.6,0,3,0.3,4.2,1c1.2,0.7,2.2,1.5,3.1,2.6c0.8,1.1,1.5,2.3,1.9,3.7
			c0.4,1.4,0.6,2.8,0.6,4.3c0,1.2-0.1,2.5-0.4,3.8c-0.3,1.3-0.6,2.5-1.2,3.7c-0.5,1.2-1.1,2.3-1.9,3.4c-0.7,1.1-1.6,2-2.6,2.8
			c-1,0.8-2.1,1.4-3.3,1.9c-1.2,0.5-2.5,0.7-3.9,0.7c-1.6,0-3-0.3-4.2-1c-1.2-0.7-2.2-1.5-3.1-2.6c-0.8-1.1-1.4-2.3-1.9-3.7
			C517.1,925.5,516.9,924,516.9,922.6z M521.4,920.8c0,0.8,0.1,1.7,0.2,2.6c0.1,0.9,0.3,1.7,0.6,2.5c0.3,0.8,0.6,1.6,1,2.3
			c0.4,0.7,0.9,1.3,1.4,1.8c0.6,0.5,1.2,0.9,1.9,1.2s1.4,0.4,2.3,0.4c0.9,0,1.7-0.2,2.4-0.6c0.7-0.4,1.3-0.9,1.8-1.5
			c0.5-0.6,0.9-1.4,1.2-2.2c0.3-0.8,0.6-1.7,0.8-2.6c0.2-0.9,0.3-1.8,0.4-2.6c0.1-0.9,0.1-1.7,0.1-2.4c0-0.9-0.1-1.7-0.2-2.6
			c-0.1-0.9-0.3-1.7-0.6-2.5c-0.3-0.8-0.6-1.5-1-2.2c-0.4-0.7-0.9-1.3-1.4-1.8c-0.6-0.5-1.2-0.9-1.9-1.2s-1.4-0.4-2.3-0.4
			c-0.9,0-1.7,0.2-2.4,0.6c-0.7,0.4-1.3,0.9-1.8,1.5c-0.5,0.6-0.9,1.4-1.2,2.2c-0.3,0.8-0.6,1.7-0.8,2.6c-0.2,0.9-0.3,1.8-0.4,2.6
			C521.4,919.3,521.4,920.1,521.4,920.8z"/>
		<path class="st3" d="M558.9,908.6c0.9-0.3,1.7-0.6,2.5-0.8c0.8-0.3,1.6-0.5,2.2-0.7c0.7-0.2,1.3-0.3,1.8-0.4
			c0.5-0.1,0.9-0.1,1.2-0.1c0.7,0,1.3,0.2,1.7,0.6c0.4,0.4,0.6,1.2,0.6,2.2c0,0.2,0,0.8-0.1,1.6c0,0.8-0.1,1.8-0.2,3.1
			s-0.2,2.6-0.3,4.2c-0.1,1.6-0.3,3.2-0.5,5l0.1,0c0.9-3.1,1.8-5.8,2.8-7.9c1-2.1,2-3.9,3-5.2c1-1.3,2-2.2,3.1-2.8
			c1-0.6,2-0.8,3-0.8c0.9,0,1.6,0.2,2.2,0.6c0.6,0.4,1.1,1,1.4,1.7c0.4,0.7,0.6,1.5,0.8,2.3c0.2,0.9,0.3,1.7,0.3,2.6
			c0,0.8,0,1.6-0.1,2.5c0,0.9-0.1,1.7-0.2,2.6c-0.1,0.8-0.2,1.7-0.2,2.4c-0.1,0.8-0.2,1.4-0.2,2l0.1,0c0.9-3.2,1.8-5.9,2.8-8
			c1-2.2,2-3.9,3-5.2c1-1.3,2-2.2,3.1-2.8c1-0.6,2-0.8,3-0.8c0.6,0,1.2,0.1,1.8,0.4c0.6,0.3,1.1,0.7,1.5,1.3
			c0.5,0.6,0.8,1.3,1.1,2.2c0.3,0.9,0.4,2,0.4,3.3c0,0.4,0,0.9-0.1,1.5c0,0.6-0.1,1.3-0.2,2.1c-0.1,0.8-0.1,1.6-0.2,2.4
			c-0.1,0.9-0.2,1.7-0.2,2.5c-0.1,0.8-0.1,1.6-0.2,2.4c0,0.7-0.1,1.4-0.1,1.9c0,1,0,1.8,0.1,2.4c0.1,0.6,0.2,1.1,0.4,1.4
			c0.2,0.4,0.4,0.6,0.7,0.7c0.3,0.1,0.7,0.2,1.1,0.2c0.6,0,1.3-0.1,2-0.3c0.7-0.2,1.4-0.4,2.1-0.8l0.4,1c-0.4,0.4-1,0.7-1.7,1.1
			c-0.7,0.4-1.4,0.7-2.1,1s-1.5,0.6-2.2,0.8c-0.7,0.2-1.4,0.3-2,0.3c-0.7,0-1.2-0.2-1.6-0.5c-0.4-0.4-0.7-0.8-0.9-1.5
			c-0.2-0.6-0.3-1.3-0.4-2.2c-0.1-0.8-0.1-1.7-0.1-2.7c0-1.2,0-2.4,0.1-3.6s0.2-2.5,0.3-3.6c0.1-1.1,0.2-2.2,0.3-3.1
			c0.1-0.9,0.1-1.6,0.1-2.1c0-1.3-0.2-2.4-0.7-3c-0.5-0.7-1.1-1-1.9-1c-0.6,0-1.3,0.3-2,0.9c-0.7,0.6-1.4,1.4-2.1,2.5
			c-0.7,1.1-1.4,2.3-2.1,3.7c-0.7,1.4-1.3,3-1.8,4.6c-0.5,1.7-1,3.4-1.3,5.2c-0.4,1.8-0.6,3.7-0.7,5.5l-3.9,0.5l-0.3,0
			c0.1-2.6,0.3-4.9,0.4-6.9s0.2-3.8,0.3-5.3c0.1-1.5,0.2-2.8,0.2-3.8s0.1-1.9,0.1-2.6c0-1.4-0.2-2.4-0.7-3.1s-1.1-1.1-1.8-1.1
			c-0.7,0-1.3,0.3-2.1,0.9c-0.7,0.6-1.4,1.4-2.1,2.4s-1.4,2.3-2,3.7c-0.6,1.4-1.2,2.9-1.8,4.6c-0.5,1.6-1,3.4-1.3,5.2
			s-0.6,3.6-0.7,5.5l-3.9,0.5l-0.3,0c0.1-1.2,0.2-2.5,0.3-3.8c0.1-1.4,0.2-2.8,0.2-4.2c0.1-1.4,0.1-2.8,0.2-4.2
			c0.1-1.4,0.1-2.7,0.1-3.9c0-1.2,0.1-2.3,0.1-3.3s0-1.7,0-2.3c0-0.5,0-0.9-0.1-1.3c-0.1-0.3-0.2-0.6-0.3-0.8
			c-0.2-0.2-0.3-0.3-0.6-0.4c-0.2-0.1-0.5-0.1-0.8-0.1c-0.4,0-1,0.1-1.6,0.2c-0.6,0.1-1.3,0.3-2.1,0.5L558.9,908.6z"/>
		<path class="st3" d="M617.6,907.1c-0.2,1.4-0.4,2.8-0.5,4.2c-0.1,1.4-0.3,2.8-0.4,4.1c-0.1,1.3-0.2,2.6-0.2,3.8
			c0,1.2-0.1,2.2-0.1,3.2c0,1.3,0,2.4,0.1,3.3c0,0.9,0.1,1.7,0.2,2.3s0.2,1.1,0.3,1.5c0.1,0.4,0.3,0.7,0.5,0.9
			c0.2,0.2,0.4,0.3,0.7,0.4c0.3,0.1,0.5,0.1,0.9,0.1c0.6,0,1.2-0.1,1.9-0.3c0.7-0.2,1.4-0.4,2.1-0.8l0.4,1c-0.4,0.4-1,0.7-1.7,1.1
			c-0.7,0.4-1.4,0.7-2.1,1s-1.5,0.6-2.2,0.8c-0.7,0.2-1.3,0.3-1.8,0.3c-0.3,0-0.7,0-0.9-0.1c-0.3-0.1-0.5-0.2-0.8-0.4
			c-0.2-0.2-0.4-0.5-0.6-1c-0.2-0.4-0.3-1-0.4-1.8c-0.1-0.7-0.2-1.7-0.3-2.8s-0.1-2.5-0.1-4c0-0.9,0-2,0-3.1c0-1.2,0-2.4,0.1-3.8
			c0-1.3,0.1-2.8,0.1-4.2c0.1-1.5,0.1-3,0.2-4.6c0-0.3,0.1-0.6,0.3-0.8c0.2-0.2,0.4-0.4,0.6-0.5c0.2-0.1,0.5-0.2,0.8-0.2
			c0.3,0,0.5-0.1,0.7-0.1C616.1,906.6,616.9,906.8,617.6,907.1z M616,898.8c-0.4,0-0.8-0.1-1.2-0.3c-0.3-0.2-0.6-0.4-0.9-0.7
			c-0.2-0.3-0.4-0.6-0.5-1c-0.1-0.4-0.2-0.8-0.2-1.2c0-0.6,0.1-1,0.3-1.5c0.2-0.4,0.4-0.8,0.7-1.1c0.3-0.3,0.6-0.5,1-0.7
			c0.4-0.1,0.7-0.2,1.1-0.2c0.4,0,0.8,0.1,1.1,0.2c0.3,0.2,0.6,0.4,0.9,0.6c0.2,0.3,0.4,0.6,0.6,0.9c0.1,0.4,0.2,0.7,0.2,1.1
			c0,0.4-0.1,0.9-0.2,1.3c-0.1,0.4-0.4,0.8-0.6,1.2c-0.3,0.3-0.6,0.6-1,0.8C616.9,898.6,616.5,898.8,616,898.8z"/>
		<path class="st3" d="M629.6,926.5c0.1,0.9,0.3,1.8,0.8,2.4c0.4,0.7,0.9,1.2,1.5,1.7c0.6,0.4,1.3,0.8,2,1c0.7,0.2,1.5,0.3,2.2,0.3
			c0.7,0,1.3-0.1,2-0.3s1.2-0.5,1.7-0.8c0.5-0.3,0.9-0.8,1.2-1.3c0.3-0.5,0.4-1.1,0.4-1.7c0-0.7-0.2-1.2-0.5-1.7
			c-0.3-0.5-0.7-0.9-1.2-1.4s-1.1-0.8-1.8-1.1c-0.7-0.3-1.4-0.7-2.1-1.1c-0.7-0.3-1.3-0.6-2-0.9c-0.7-0.3-1.3-0.7-1.9-1
			s-1.2-0.8-1.7-1.2c-0.5-0.4-1-0.9-1.4-1.4c-0.4-0.5-0.7-1.1-0.9-1.8c-0.2-0.7-0.3-1.4-0.3-2.2c0-0.9,0.1-1.6,0.4-2.4
			c0.3-0.7,0.7-1.4,1.2-1.9c0.5-0.6,1.1-1.1,1.8-1.5c0.7-0.4,1.4-0.8,2.2-1.1c0.8-0.3,1.6-0.5,2.4-0.7c0.8-0.1,1.6-0.2,2.4-0.2
			c1,0,1.9,0.1,2.8,0.3c0.9,0.2,1.7,0.5,2.3,0.9c0.7,0.4,1.2,0.9,1.6,1.5s0.6,1.3,0.6,2c0,0.3,0,0.6-0.1,0.9s-0.3,0.6-0.5,0.9
			c-0.2,0.3-0.5,0.5-0.9,0.7c-0.4,0.2-0.9,0.3-1.4,0.3c-0.5,0-1.1-0.1-1.6-0.2l-0.1-0.2c0.2-0.4,0.3-0.8,0.4-1.1s0.1-0.6,0.1-0.9
			c0-0.6-0.2-1-0.4-1.4c-0.3-0.4-0.6-0.7-1-1c-0.4-0.2-0.9-0.4-1.4-0.5c-0.5-0.1-1-0.2-1.5-0.2c-0.9,0-1.7,0.1-2.4,0.4
			c-0.7,0.2-1.3,0.5-1.8,0.9c-0.5,0.4-0.8,0.8-1.1,1.3c-0.3,0.5-0.4,1-0.4,1.5c0,0.7,0.2,1.3,0.5,1.8c0.4,0.5,0.8,1,1.4,1.5
			c0.6,0.5,1.3,0.9,2.1,1.3c0.8,0.4,1.6,0.8,2.4,1.2c0.9,0.4,1.9,0.9,2.8,1.4c0.9,0.5,1.8,1,2.5,1.6c0.7,0.6,1.3,1.3,1.8,2.1
			c0.5,0.8,0.7,1.7,0.7,2.8c0,1.3-0.3,2.4-0.8,3.4c-0.6,1-1.3,1.8-2.3,2.5c-0.9,0.7-2,1.2-3.2,1.5c-1.2,0.4-2.5,0.5-3.8,0.5
			c-0.7,0-1.3,0-2-0.1c-0.7-0.1-1.4-0.2-2-0.4c-0.7-0.2-1.3-0.4-1.9-0.7c-0.6-0.3-1.1-0.6-1.5-1c-0.4-0.4-0.8-0.8-1-1.3
			c-0.3-0.5-0.4-1-0.4-1.5c0-0.5,0.1-0.9,0.3-1.2s0.5-0.6,0.8-0.8c0.3-0.2,0.7-0.4,1.1-0.5c0.4-0.1,0.8-0.2,1.3-0.2L629.6,926.5z"/>
		<path class="st3" d="M676.6,893.6c1.1,2.4,2.1,4.8,3.2,7.2s2.2,4.9,3.3,7.4c0.7-1.2,1.4-2.3,2.1-3.5s1.4-2.4,2.2-3.7
			c0.7-1.3,1.5-2.7,2.3-4.1c0.8-1.5,1.7-3,2.7-4.7c0.2-0.3,0.4-0.6,0.6-0.8c0.2-0.2,0.4-0.4,0.7-0.5c0.2-0.1,0.5-0.2,0.8-0.2
			c0.3,0,0.6-0.1,0.9-0.1c0.5,0,1,0.1,1.6,0.2s1.2,0.4,1.7,0.8c-1.3,1.4-2.5,3-3.8,4.6c-1.3,1.6-2.5,3.3-3.7,5
			c-1.2,1.7-2.4,3.4-3.5,5.1c-1.1,1.7-2.2,3.3-3.2,4.9c1.4,3,2.7,5.9,4,8.8s2.6,5.7,3.9,8.4c0.3,0.6,0.6,1.1,0.9,1.4
			c0.3,0.4,0.7,0.7,1,0.9c0.4,0.2,0.7,0.4,1.1,0.4c0.4,0.1,0.8,0.1,1.2,0.1c0.6,0,1.1-0.1,1.7-0.2c0.6-0.1,1.2-0.3,1.8-0.5l0.5,1.5
			c-1.6,0.7-3,1.2-4.3,1.6s-2.5,0.6-3.4,0.6c-0.4,0-0.8,0-1.2-0.1c-0.4-0.1-0.7-0.2-1.1-0.4c-0.3-0.2-0.6-0.5-0.9-0.9
			c-0.3-0.4-0.6-0.9-0.9-1.5c-1.2-2.7-2.5-5.4-3.7-8.1c-1.2-2.8-2.5-5.5-3.7-8.3c-1.2,2-2.4,3.9-3.4,5.8c-1.1,1.8-2.1,3.6-2.9,5.2
			c-0.9,1.6-1.7,3.1-2.4,4.4s-1.3,2.4-1.8,3.3l-6,0.7l-0.2-0.2c1.9-2.5,3.6-4.8,5.1-6.8c1.5-2.1,2.9-4,4.1-5.7
			c1.2-1.8,2.4-3.4,3.4-4.9c1-1.5,2-3,2.9-4.4c-0.6-1.4-1.3-2.8-1.9-4.2c-0.6-1.4-1.2-2.7-1.8-4.1c-0.6-1.3-1.2-2.6-1.8-3.9
			c-0.6-1.3-1.2-2.5-1.7-3.7c-0.3-0.5-0.5-1-0.8-1.4c-0.3-0.4-0.6-0.6-0.9-0.9c-0.3-0.2-0.7-0.4-1-0.4c-0.4-0.1-0.8-0.1-1.3-0.1
			c-0.8,0-1.8,0.1-3,0.3l-0.2-1.6c1.9-0.5,3.4-0.8,4.6-1.1c1.2-0.3,2.2-0.4,3-0.4c0.5,0,0.9,0.1,1.2,0.2c0.3,0.1,0.6,0.3,0.9,0.6
			c0.3,0.3,0.5,0.6,0.7,1C676.1,892.6,676.4,893.1,676.6,893.6z"/>
		<path class="st3" d="M710.1,895.1c0.5,1.4,1,3.2,1.5,5.2c0.5,2,1.1,4.4,1.8,7.2c0.6,2.8,1.3,5.9,2,9.5s1.4,7.6,2.2,12.1h0.1
			c1.2-2.2,2.3-4.4,3.4-6.6c1.1-2.2,2.1-4.3,3.1-6.4c1-2.1,1.8-4.1,2.7-6c0.8-1.9,1.5-3.7,2.1-5.4c0.6-1.7,1-3.2,1.4-4.6
			c0.3-1.4,0.5-2.6,0.5-3.6c0-2.6-0.9-4.7-2.6-6.1l0.1-0.3c0.2,0,0.5-0.1,0.7-0.1c0.2,0,0.5,0,0.8,0c0.6,0,1.3,0.1,1.9,0.2
			c0.6,0.2,1.2,0.4,1.6,0.8c0.5,0.4,0.9,0.8,1.2,1.4c0.3,0.6,0.5,1.4,0.5,2.3c0,0.8-0.2,1.9-0.6,3.3c-0.4,1.4-0.9,3.1-1.7,5
			c-0.7,1.9-1.6,4-2.6,6.3c-1,2.3-2.2,4.8-3.5,7.5c-1.3,2.6-2.7,5.4-4.2,8.3c-1.5,2.9-3.1,5.9-4.9,8.9l-3,0.2L714,934
			c-1.9-9.8-3.6-17.8-4.9-23.9c-1.3-6.1-2.5-10.5-3.5-13.1c-0.2-0.7-0.5-1.2-0.8-1.7c-0.3-0.5-0.6-0.9-0.9-1.2s-0.7-0.5-1.2-0.6
			c-0.5-0.1-1-0.2-1.6-0.2c-0.4,0-0.9,0-1.4,0.1c-0.5,0.1-1.1,0.1-1.7,0.2l-0.2-1.7c1.9-0.5,3.5-0.9,4.8-1.1
			c1.3-0.3,2.4-0.4,3.2-0.4c0.6,0,1.2,0.1,1.6,0.3c0.4,0.2,0.8,0.5,1,0.8c0.3,0.4,0.6,0.9,0.8,1.4
			C709.6,893.6,709.9,894.3,710.1,895.1z"/>
	</g>
	<g class="st2">
		<path class="st4" d="M376.1,889.6c1.6,0,3.1,0.1,4.5,0.4c1.4,0.3,2.6,0.7,3.6,1.1c1,0.4,1.8,0.9,2.4,1.4c0.6,0.5,0.9,0.9,0.9,1.4
			c0,0.9,0,2-0.1,3.3c-0.1,1.4-0.1,3-0.2,4.9l-1.6-0.1c0-0.2,0-0.3,0-0.5c0-0.2,0-0.3,0-0.5c0-0.9-0.1-1.7-0.3-2.4
			c-0.2-0.8-0.5-1.5-1-2.2c-0.5-0.7-1.1-1.3-1.8-1.9c-0.7-0.5-1.4-1-2.3-1.4s-1.7-0.7-2.6-0.8c-0.9-0.2-1.9-0.3-2.8-0.3
			c-1.7,0-3.2,0.3-4.5,0.8c-1.4,0.5-2.6,1.2-3.6,2.1c-1.1,0.9-2,2-2.8,3.2c-0.8,1.2-1.4,2.6-1.9,4.1c-0.5,1.5-0.9,3-1.2,4.6
			c-0.3,1.6-0.4,3.2-0.4,4.9c0,1.9,0.2,3.8,0.5,5.5c0.3,1.7,0.8,3.3,1.4,4.8s1.3,2.7,2.2,3.9c0.8,1.2,1.8,2.1,2.8,2.9
			c1,0.8,2.2,1.4,3.4,1.8c1.2,0.4,2.5,0.6,3.9,0.6c0.9,0,1.9-0.1,2.9-0.3c1-0.2,2-0.5,3-1c1-0.4,2.1-1,3.1-1.7
			c1-0.7,2.1-1.5,3.1-2.4c0.1,0,0.2,0.1,0.3,0.2s0.3,0.2,0.4,0.2c0.1,0.1,0.2,0.2,0.3,0.3c0.1,0.1,0.1,0.2,0.1,0.3
			c0,0.1,0,0.2-0.1,0.3c-1.2,1.3-2.4,2.5-3.7,3.4c-1.2,0.9-2.5,1.6-3.7,2.2c-1.2,0.6-2.5,1-3.8,1.2c-1.3,0.2-2.5,0.4-3.8,0.4
			c-1.7,0-3.3-0.2-4.8-0.7c-1.5-0.5-2.9-1.1-4.2-2c-1.3-0.9-2.5-1.9-3.5-3.1c-1.1-1.2-1.9-2.6-2.7-4.1c-0.7-1.5-1.3-3.2-1.7-5
			c-0.4-1.8-0.6-3.7-0.6-5.7c0-1.9,0.2-3.9,0.6-5.8c0.4-1.9,1-3.8,1.7-5.6c0.8-1.8,1.7-3.4,2.9-5c1.2-1.5,2.5-2.9,4.1-4
			c1.6-1.1,3.3-2,5.3-2.7C371.6,889.9,373.7,889.6,376.1,889.6z"/>
		<path class="st4" d="M412.5,927.5c0.1,0,0.2,0.1,0.3,0.2c0.1,0.1,0.2,0.1,0.3,0.2c0.1,0.1,0.2,0.2,0.3,0.3
			c0.1,0.1,0.1,0.2,0.1,0.3c0,0,0,0.1-0.1,0.1c-0.7,1-1.4,1.8-2.2,2.5c-0.8,0.7-1.6,1.3-2.5,1.8c-0.9,0.5-1.7,0.8-2.6,1.1
			c-0.9,0.2-1.8,0.3-2.6,0.3c-1.5,0-2.8-0.3-4.1-0.9c-1.2-0.6-2.3-1.4-3.2-2.5c-0.9-1.1-1.6-2.3-2.1-3.7c-0.5-1.4-0.8-2.9-0.8-4.6
			c0-1.3,0.1-2.6,0.4-4c0.3-1.3,0.7-2.6,1.3-3.8c0.6-1.2,1.2-2.3,2-3.3c0.8-1,1.7-1.9,2.7-2.7c1-0.8,2.1-1.4,3.3-1.8
			c1.2-0.4,2.5-0.6,3.9-0.6c0.9,0,1.8,0.1,2.6,0.4c0.8,0.2,1.6,0.6,2.2,1.1c0.6,0.5,1.1,1,1.5,1.7c0.4,0.7,0.6,1.5,0.6,2.3
			c0,1.3-0.4,2.4-1.2,3.3c-0.8,0.9-2,1.7-3.4,2.4c-1.4,0.7-3.2,1.2-5.1,1.6c-2,0.4-4.1,0.7-6.4,0.9v0.3c0,1.6,0.2,3,0.6,4.3
			c0.4,1.3,1,2.4,1.7,3.4c0.7,0.9,1.5,1.7,2.5,2.2c1,0.5,2,0.8,3.1,0.8c1.1,0,2.3-0.3,3.4-0.8C410.1,929.6,411.3,928.7,412.5,927.5z
			 M409,912.6c0-0.6-0.1-1.1-0.3-1.6c-0.2-0.5-0.5-0.9-0.8-1.3c-0.3-0.4-0.7-0.7-1.2-0.9c-0.5-0.2-1-0.3-1.5-0.3
			c-0.8,0-1.5,0.1-2.2,0.4c-0.7,0.3-1.2,0.7-1.8,1.2c-0.5,0.5-1,1.1-1.4,1.7c-0.4,0.7-0.7,1.3-1,2.1c-0.3,0.7-0.5,1.5-0.7,2.2
			c-0.2,0.8-0.3,1.5-0.4,2.2c1.8-0.1,3.3-0.3,4.7-0.6c1.4-0.3,2.6-0.7,3.5-1.2c1-0.5,1.7-1,2.2-1.7C408.7,914.2,409,913.4,409,912.6
			z"/>
		<path class="st4" d="M428.1,883.4c-0.2,2.1-0.5,4.3-0.7,6.5c-0.2,2.2-0.5,4.4-0.7,6.7c-0.2,2.3-0.4,4.5-0.6,6.8
			c-0.2,2.3-0.3,4.5-0.5,6.7c-0.1,2.2-0.2,4.4-0.3,6.5c-0.1,2.1-0.1,4.2-0.1,6.1c0,1.2,0,2.3,0,3.2c0,0.9,0.1,1.6,0.1,2.2
			c0.1,0.6,0.2,1.1,0.3,1.5c0.1,0.4,0.3,0.7,0.4,0.9c0.2,0.2,0.4,0.3,0.6,0.4c0.2,0.1,0.5,0.1,0.8,0.1c0.6,0,1.2-0.1,1.9-0.3
			c0.7-0.2,1.4-0.4,2.1-0.8l0.4,1c-0.4,0.4-1,0.7-1.7,1.1c-0.7,0.4-1.4,0.7-2.1,1s-1.5,0.6-2.2,0.8c-0.7,0.2-1.3,0.3-1.8,0.3
			c-0.7,0-1.2-0.2-1.6-0.5c-0.4-0.3-0.7-0.9-0.9-1.7c-0.2-0.8-0.3-1.8-0.4-3c-0.1-1.2-0.1-2.7-0.1-4.5c0-0.6,0-1.6,0.1-2.8
			c0-1.2,0.1-2.6,0.2-4.2c0.1-1.6,0.1-3.3,0.2-5.2c0.1-1.9,0.2-3.8,0.3-5.8c0.1-2,0.2-4,0.3-6.1c0.1-2,0.2-4,0.3-5.9
			c0.1-1.9,0.2-3.7,0.3-5.4c0.1-1.7,0.2-3.2,0.3-4.5c0-0.3,0.1-0.6,0.3-0.8c0.2-0.2,0.4-0.4,0.6-0.5c0.3-0.1,0.5-0.2,0.9-0.3
			c0.3-0.1,0.6-0.1,1-0.1C426.5,882.9,427.3,883,428.1,883.4z"/>
		<path class="st4" d="M454.5,927.5c0.1,0,0.2,0.1,0.3,0.2c0.1,0.1,0.2,0.1,0.3,0.2c0.1,0.1,0.2,0.2,0.3,0.3
			c0.1,0.1,0.1,0.2,0.1,0.3c0,0,0,0.1-0.1,0.1c-0.7,1-1.4,1.8-2.2,2.5c-0.8,0.7-1.6,1.3-2.5,1.8c-0.9,0.5-1.7,0.8-2.6,1.1
			c-0.9,0.2-1.8,0.3-2.6,0.3c-1.5,0-2.8-0.3-4.1-0.9c-1.2-0.6-2.3-1.4-3.2-2.5c-0.9-1.1-1.6-2.3-2.1-3.7c-0.5-1.4-0.8-2.9-0.8-4.6
			c0-1.3,0.1-2.6,0.4-4c0.3-1.3,0.7-2.6,1.3-3.8c0.6-1.2,1.2-2.3,2-3.3c0.8-1,1.7-1.9,2.7-2.7c1-0.8,2.1-1.4,3.3-1.8
			c1.2-0.4,2.5-0.6,3.9-0.6c0.9,0,1.8,0.1,2.6,0.4c0.8,0.2,1.6,0.6,2.2,1.1c0.6,0.5,1.1,1,1.5,1.7c0.4,0.7,0.6,1.5,0.6,2.3
			c0,1.3-0.4,2.4-1.2,3.3c-0.8,0.9-2,1.7-3.4,2.4c-1.4,0.7-3.2,1.2-5.1,1.6c-2,0.4-4.1,0.7-6.4,0.9v0.3c0,1.6,0.2,3,0.6,4.3
			c0.4,1.3,1,2.4,1.7,3.4c0.7,0.9,1.5,1.7,2.5,2.2c1,0.5,2,0.8,3.1,0.8c1.1,0,2.3-0.3,3.4-0.8C452.2,929.6,453.3,928.7,454.5,927.5z
			 M451.1,912.6c0-0.6-0.1-1.1-0.3-1.6c-0.2-0.5-0.5-0.9-0.8-1.3c-0.3-0.4-0.7-0.7-1.2-0.9c-0.5-0.2-1-0.3-1.5-0.3
			c-0.8,0-1.5,0.1-2.2,0.4c-0.7,0.3-1.2,0.7-1.8,1.2c-0.5,0.5-1,1.1-1.4,1.7c-0.4,0.7-0.7,1.3-1,2.1c-0.3,0.7-0.5,1.5-0.7,2.2
			c-0.2,0.8-0.3,1.5-0.4,2.2c1.8-0.1,3.3-0.3,4.7-0.6c1.4-0.3,2.6-0.7,3.5-1.2c1-0.5,1.7-1,2.2-1.7
			C450.8,914.2,451.1,913.4,451.1,912.6z"/>
		<path class="st4" d="M470.3,883.4c-0.2,2-0.5,4-0.7,6.1c-0.2,2.1-0.5,4.2-0.7,6.4c-0.2,2.2-0.4,4.3-0.6,6.5
			c-0.2,2.2-0.4,4.3-0.6,6.4c-0.2,2.1-0.3,4.2-0.4,6.2c-0.1,2-0.2,4-0.3,5.9l0.2,0c1-2.4,2-4.5,3.2-6.3c1.1-1.8,2.3-3.4,3.4-4.6
			c1.2-1.2,2.3-2.2,3.5-2.8c1.1-0.6,2.2-0.9,3.2-0.9c0.9,0,1.6,0.2,2.3,0.5c0.7,0.3,1.2,0.7,1.7,1.3c0.5,0.5,0.9,1.1,1.2,1.8
			c0.3,0.7,0.6,1.4,0.8,2.2c0.2,0.7,0.3,1.5,0.4,2.3c0.1,0.8,0.1,1.5,0.1,2.2c0,1.8-0.2,3.6-0.5,5.2c-0.4,1.6-0.9,3.1-1.5,4.4
			c-0.6,1.3-1.4,2.5-2.3,3.5c-0.9,1-1.8,1.9-2.9,2.6c-1,0.7-2.1,1.2-3.2,1.6c-1.1,0.4-2.3,0.5-3.4,0.5c-0.8,0-1.5-0.1-2.3-0.3
			c-0.8-0.2-1.5-0.4-2.3-0.8c-0.7-0.4-1.4-0.8-2.1-1.4c-0.7-0.6-1.2-1.2-1.8-2c-0.4,1.1-0.9,2-1.3,2.7c-0.4,0.7-0.9,1.2-1.2,1.7
			l-1-0.2c0.7-1.9,1.2-4.2,1.5-6.8c0.3-2.7,0.6-5.7,0.7-9c0.1-1.4,0.1-3.1,0.2-4.9c0.1-1.8,0.2-3.8,0.3-5.8c0.1-2,0.2-4.1,0.3-6.2
			c0.1-2.1,0.2-4.2,0.3-6.2s0.2-3.9,0.3-5.7c0.1-1.8,0.2-3.4,0.3-4.8c0-0.3,0.1-0.6,0.3-0.8c0.2-0.2,0.4-0.4,0.6-0.5
			c0.3-0.1,0.6-0.2,0.9-0.3c0.3-0.1,0.7-0.1,1-0.1C468.7,882.9,469.5,883,470.3,883.4z M482.5,918.2c0-0.8-0.1-1.7-0.2-2.6
			s-0.3-1.7-0.6-2.4c-0.3-0.7-0.6-1.3-1.1-1.8c-0.5-0.5-1-0.7-1.6-0.7c-0.8,0-1.5,0.2-2.2,0.6c-0.7,0.4-1.4,0.9-2.1,1.5
			c-0.7,0.6-1.3,1.4-2,2.2c-0.6,0.8-1.2,1.7-1.8,2.6c-0.6,0.9-1,1.8-1.5,2.8c-0.4,0.9-0.8,1.8-1.1,2.7c-0.3,0.8-0.6,1.6-0.7,2.3
			c-0.2,0.7-0.3,1.2-0.3,1.6c0.2,0.8,0.5,1.5,0.9,2.1c0.4,0.6,0.9,1.2,1.4,1.6c0.6,0.4,1.2,0.8,1.8,1c0.7,0.2,1.4,0.4,2.1,0.4
			c1.2,0,2.4-0.3,3.5-0.9c1.1-0.6,2.1-1.5,2.9-2.7s1.5-2.6,1.9-4.4C482.2,922.4,482.5,920.4,482.5,918.2z"/>
		<path class="st4" d="M496.3,933.7l-0.3,0c0.1-1.2,0.2-2.5,0.3-3.8c0.1-1.4,0.2-2.8,0.2-4.2c0.1-1.4,0.1-2.8,0.2-4.2
			c0.1-1.4,0.1-2.7,0.1-3.9c0-1.2,0.1-2.3,0.1-3.3s0-1.7,0-2.3c0-0.5,0-0.9-0.1-1.2s-0.1-0.6-0.3-0.8s-0.3-0.4-0.6-0.5
			c-0.2-0.1-0.6-0.2-1-0.2c-0.2,0-0.4,0-0.6,0c-0.2,0-0.5,0.1-0.7,0.1c-0.3,0-0.6,0.1-0.9,0.2c-0.3,0.1-0.7,0.2-1.2,0.3l-0.3-1.3
			c2.1-0.7,3.7-1.3,5-1.6c1.3-0.3,2.1-0.5,2.6-0.5c0.8,0,1.4,0.2,1.8,0.7c0.4,0.5,0.5,1.2,0.5,2.1c0,0.1,0,0.3,0,0.8
			c0,0.4-0.1,1-0.1,1.6c0,0.7-0.1,1.5-0.2,2.3c-0.1,0.9-0.1,1.8-0.2,2.9c-0.1,1-0.2,2.1-0.3,3.2c-0.1,1.1-0.2,2.2-0.3,3.3l0.2,0
			c0.6-2.4,1.3-4.7,2-6.8c0.7-2.1,1.6-3.9,2.5-5.5c0.9-1.5,2-2.8,3.1-3.6c1.1-0.9,2.3-1.3,3.7-1.3c0.5,0,0.9,0.1,1.3,0.2
			s0.8,0.4,1.1,0.6c0.3,0.3,0.5,0.6,0.7,0.9c0.2,0.4,0.3,0.8,0.3,1.2c0,0.6-0.1,1.1-0.4,1.6c-0.2,0.5-0.6,1-1.1,1.4h-0.1
			c-0.5-0.4-1-0.7-1.5-0.9c-0.5-0.2-1-0.3-1.5-0.3c-0.6,0-1.1,0.1-1.6,0.3c-0.5,0.2-1,0.5-1.4,0.9c-0.7,0.6-1.4,1.5-2,2.6
			c-0.6,1.1-1.2,2.2-1.7,3.5c-0.5,1.3-1,2.6-1.4,4.1c-0.4,1.4-0.7,2.8-1,4.1c-0.3,1.3-0.5,2.6-0.7,3.8c-0.2,1.2-0.3,2.2-0.4,3
			L496.3,933.7z"/>
		<path class="st4" d="M516.9,922.6c0-1.2,0.1-2.5,0.4-3.8c0.3-1.3,0.6-2.5,1.2-3.7c0.5-1.2,1.1-2.3,1.9-3.4c0.7-1.1,1.6-2,2.6-2.8
			c1-0.8,2.1-1.4,3.3-1.9c1.2-0.5,2.5-0.7,3.9-0.7c1.6,0,3,0.3,4.2,1c1.2,0.7,2.2,1.5,3.1,2.6c0.8,1.1,1.5,2.3,1.9,3.7
			c0.4,1.4,0.6,2.8,0.6,4.3c0,1.2-0.1,2.5-0.4,3.8c-0.3,1.3-0.6,2.5-1.2,3.7c-0.5,1.2-1.1,2.3-1.9,3.4c-0.7,1.1-1.6,2-2.6,2.8
			c-1,0.8-2.1,1.4-3.3,1.9c-1.2,0.5-2.5,0.7-3.9,0.7c-1.6,0-3-0.3-4.2-1c-1.2-0.7-2.2-1.5-3.1-2.6c-0.8-1.1-1.4-2.3-1.9-3.7
			C517.1,925.5,516.9,924,516.9,922.6z M521.4,920.8c0,0.8,0.1,1.7,0.2,2.6c0.1,0.9,0.3,1.7,0.6,2.5c0.3,0.8,0.6,1.6,1,2.3
			c0.4,0.7,0.9,1.3,1.4,1.8c0.6,0.5,1.2,0.9,1.9,1.2s1.4,0.4,2.3,0.4c0.9,0,1.7-0.2,2.4-0.6c0.7-0.4,1.3-0.9,1.8-1.5
			c0.5-0.6,0.9-1.4,1.2-2.2c0.3-0.8,0.6-1.7,0.8-2.6c0.2-0.9,0.3-1.8,0.4-2.6c0.1-0.9,0.1-1.7,0.1-2.4c0-0.9-0.1-1.7-0.2-2.6
			c-0.1-0.9-0.3-1.7-0.6-2.5c-0.3-0.8-0.6-1.5-1-2.2c-0.4-0.7-0.9-1.3-1.4-1.8c-0.6-0.5-1.2-0.9-1.9-1.2s-1.4-0.4-2.3-0.4
			c-0.9,0-1.7,0.2-2.4,0.6c-0.7,0.4-1.3,0.9-1.8,1.5c-0.5,0.6-0.9,1.4-1.2,2.2c-0.3,0.8-0.6,1.7-0.8,2.6c-0.2,0.9-0.3,1.8-0.4,2.6
			C521.4,919.3,521.4,920.1,521.4,920.8z"/>
		<path class="st4" d="M558.9,908.6c0.9-0.3,1.7-0.6,2.5-0.8c0.8-0.3,1.6-0.5,2.2-0.7c0.7-0.2,1.3-0.3,1.8-0.4
			c0.5-0.1,0.9-0.1,1.2-0.1c0.7,0,1.3,0.2,1.7,0.6c0.4,0.4,0.6,1.2,0.6,2.2c0,0.2,0,0.8-0.1,1.6c0,0.8-0.1,1.8-0.2,3.1
			s-0.2,2.6-0.3,4.2c-0.1,1.6-0.3,3.2-0.5,5l0.1,0c0.9-3.1,1.8-5.8,2.8-7.9c1-2.1,2-3.9,3-5.2c1-1.3,2-2.2,3.1-2.8
			c1-0.6,2-0.8,3-0.8c0.9,0,1.6,0.2,2.2,0.6c0.6,0.4,1.1,1,1.4,1.7c0.4,0.7,0.6,1.5,0.8,2.3c0.2,0.9,0.3,1.7,0.3,2.6
			c0,0.8,0,1.6-0.1,2.5c0,0.9-0.1,1.7-0.2,2.6c-0.1,0.8-0.2,1.7-0.2,2.4c-0.1,0.8-0.2,1.4-0.2,2l0.1,0c0.9-3.2,1.8-5.9,2.8-8
			c1-2.2,2-3.9,3-5.2c1-1.3,2-2.2,3.1-2.8c1-0.6,2-0.8,3-0.8c0.6,0,1.2,0.1,1.8,0.4c0.6,0.3,1.1,0.7,1.5,1.3
			c0.5,0.6,0.8,1.3,1.1,2.2c0.3,0.9,0.4,2,0.4,3.3c0,0.4,0,0.9-0.1,1.5c0,0.6-0.1,1.3-0.2,2.1c-0.1,0.8-0.1,1.6-0.2,2.4
			c-0.1,0.9-0.2,1.7-0.2,2.5c-0.1,0.8-0.1,1.6-0.2,2.4c0,0.7-0.1,1.4-0.1,1.9c0,1,0,1.8,0.1,2.4c0.1,0.6,0.2,1.1,0.4,1.4
			c0.2,0.4,0.4,0.6,0.7,0.7c0.3,0.1,0.7,0.2,1.1,0.2c0.6,0,1.3-0.1,2-0.3c0.7-0.2,1.4-0.4,2.1-0.8l0.4,1c-0.4,0.4-1,0.7-1.7,1.1
			c-0.7,0.4-1.4,0.7-2.1,1s-1.5,0.6-2.2,0.8c-0.7,0.2-1.4,0.3-2,0.3c-0.7,0-1.2-0.2-1.6-0.5c-0.4-0.4-0.7-0.8-0.9-1.5
			c-0.2-0.6-0.3-1.3-0.4-2.2c-0.1-0.8-0.1-1.7-0.1-2.7c0-1.2,0-2.4,0.1-3.6s0.2-2.5,0.3-3.6c0.1-1.1,0.2-2.2,0.3-3.1
			c0.1-0.9,0.1-1.6,0.1-2.1c0-1.3-0.2-2.4-0.7-3c-0.5-0.7-1.1-1-1.9-1c-0.6,0-1.3,0.3-2,0.9c-0.7,0.6-1.4,1.4-2.1,2.5
			c-0.7,1.1-1.4,2.3-2.1,3.7c-0.7,1.4-1.3,3-1.8,4.6c-0.5,1.7-1,3.4-1.3,5.2c-0.4,1.8-0.6,3.7-0.7,5.5l-3.9,0.5l-0.3,0
			c0.1-2.6,0.3-4.9,0.4-6.9s0.2-3.8,0.3-5.3c0.1-1.5,0.2-2.8,0.2-3.8s0.1-1.9,0.1-2.6c0-1.4-0.2-2.4-0.7-3.1s-1.1-1.1-1.8-1.1
			c-0.7,0-1.3,0.3-2.1,0.9c-0.7,0.6-1.4,1.4-2.1,2.4s-1.4,2.3-2,3.7c-0.6,1.4-1.2,2.9-1.8,4.6c-0.5,1.6-1,3.4-1.3,5.2
			s-0.6,3.6-0.7,5.5l-3.9,0.5l-0.3,0c0.1-1.2,0.2-2.5,0.3-3.8c0.1-1.4,0.2-2.8,0.2-4.2c0.1-1.4,0.1-2.8,0.2-4.2
			c0.1-1.4,0.1-2.7,0.1-3.9c0-1.2,0.1-2.3,0.1-3.3s0-1.7,0-2.3c0-0.5,0-0.9-0.1-1.3c-0.1-0.3-0.2-0.6-0.3-0.8
			c-0.2-0.2-0.3-0.3-0.6-0.4c-0.2-0.1-0.5-0.1-0.8-0.1c-0.4,0-1,0.1-1.6,0.2c-0.6,0.1-1.3,0.3-2.1,0.5L558.9,908.6z"/>
		<path class="st4" d="M617.6,907.1c-0.2,1.4-0.4,2.8-0.5,4.2c-0.1,1.4-0.3,2.8-0.4,4.1c-0.1,1.3-0.2,2.6-0.2,3.8
			c0,1.2-0.1,2.2-0.1,3.2c0,1.3,0,2.4,0.1,3.3c0,0.9,0.1,1.7,0.2,2.3s0.2,1.1,0.3,1.5c0.1,0.4,0.3,0.7,0.5,0.9
			c0.2,0.2,0.4,0.3,0.7,0.4c0.3,0.1,0.5,0.1,0.9,0.1c0.6,0,1.2-0.1,1.9-0.3c0.7-0.2,1.4-0.4,2.1-0.8l0.4,1c-0.4,0.4-1,0.7-1.7,1.1
			c-0.7,0.4-1.4,0.7-2.1,1s-1.5,0.6-2.2,0.8c-0.7,0.2-1.3,0.3-1.8,0.3c-0.3,0-0.7,0-0.9-0.1c-0.3-0.1-0.5-0.2-0.8-0.4
			c-0.2-0.2-0.4-0.5-0.6-1c-0.2-0.4-0.3-1-0.4-1.8c-0.1-0.7-0.2-1.7-0.3-2.8s-0.1-2.5-0.1-4c0-0.9,0-2,0-3.1c0-1.2,0-2.4,0.1-3.8
			c0-1.3,0.1-2.8,0.1-4.2c0.1-1.5,0.1-3,0.2-4.6c0-0.3,0.1-0.6,0.3-0.8c0.2-0.2,0.4-0.4,0.6-0.5c0.2-0.1,0.5-0.2,0.8-0.2
			c0.3,0,0.5-0.1,0.7-0.1C616.1,906.6,616.9,906.8,617.6,907.1z M616,898.8c-0.4,0-0.8-0.1-1.2-0.3c-0.3-0.2-0.6-0.4-0.9-0.7
			c-0.2-0.3-0.4-0.6-0.5-1c-0.1-0.4-0.2-0.8-0.2-1.2c0-0.6,0.1-1,0.3-1.5c0.2-0.4,0.4-0.8,0.7-1.1c0.3-0.3,0.6-0.5,1-0.7
			c0.4-0.1,0.7-0.2,1.1-0.2c0.4,0,0.8,0.1,1.1,0.2c0.3,0.2,0.6,0.4,0.9,0.6c0.2,0.3,0.4,0.6,0.6,0.9c0.1,0.4,0.2,0.7,0.2,1.1
			c0,0.4-0.1,0.9-0.2,1.3c-0.1,0.4-0.4,0.8-0.6,1.2c-0.3,0.3-0.6,0.6-1,0.8C616.9,898.6,616.5,898.8,616,898.8z"/>
		<path class="st4" d="M629.6,926.5c0.1,0.9,0.3,1.8,0.8,2.4c0.4,0.7,0.9,1.2,1.5,1.7c0.6,0.4,1.3,0.8,2,1c0.7,0.2,1.5,0.3,2.2,0.3
			c0.7,0,1.3-0.1,2-0.3s1.2-0.5,1.7-0.8c0.5-0.3,0.9-0.8,1.2-1.3c0.3-0.5,0.4-1.1,0.4-1.7c0-0.7-0.2-1.2-0.5-1.7
			c-0.3-0.5-0.7-0.9-1.2-1.4s-1.1-0.8-1.8-1.1c-0.7-0.3-1.4-0.7-2.1-1.1c-0.7-0.3-1.3-0.6-2-0.9c-0.7-0.3-1.3-0.7-1.9-1
			s-1.2-0.8-1.7-1.2c-0.5-0.4-1-0.9-1.4-1.4c-0.4-0.5-0.7-1.1-0.9-1.8c-0.2-0.7-0.3-1.4-0.3-2.2c0-0.9,0.1-1.6,0.4-2.4
			c0.3-0.7,0.7-1.4,1.2-1.9c0.5-0.6,1.1-1.1,1.8-1.5c0.7-0.4,1.4-0.8,2.2-1.1c0.8-0.3,1.6-0.5,2.4-0.7c0.8-0.1,1.6-0.2,2.4-0.2
			c1,0,1.9,0.1,2.8,0.3c0.9,0.2,1.7,0.5,2.3,0.9c0.7,0.4,1.2,0.9,1.6,1.5s0.6,1.3,0.6,2c0,0.3,0,0.6-0.1,0.9s-0.3,0.6-0.5,0.9
			c-0.2,0.3-0.5,0.5-0.9,0.7c-0.4,0.2-0.9,0.3-1.4,0.3c-0.5,0-1.1-0.1-1.6-0.2l-0.1-0.2c0.2-0.4,0.3-0.8,0.4-1.1s0.1-0.6,0.1-0.9
			c0-0.6-0.2-1-0.4-1.4c-0.3-0.4-0.6-0.7-1-1c-0.4-0.2-0.9-0.4-1.4-0.5c-0.5-0.1-1-0.2-1.5-0.2c-0.9,0-1.7,0.1-2.4,0.4
			c-0.7,0.2-1.3,0.5-1.8,0.9c-0.5,0.4-0.8,0.8-1.1,1.3c-0.3,0.5-0.4,1-0.4,1.5c0,0.7,0.2,1.3,0.5,1.8c0.4,0.5,0.8,1,1.4,1.5
			c0.6,0.5,1.3,0.9,2.1,1.3c0.8,0.4,1.6,0.8,2.4,1.2c0.9,0.4,1.9,0.9,2.8,1.4c0.9,0.5,1.8,1,2.5,1.6c0.7,0.6,1.3,1.3,1.8,2.1
			c0.5,0.8,0.7,1.7,0.7,2.8c0,1.3-0.3,2.4-0.8,3.4c-0.6,1-1.3,1.8-2.3,2.5c-0.9,0.7-2,1.2-3.2,1.5c-1.2,0.4-2.5,0.5-3.8,0.5
			c-0.7,0-1.3,0-2-0.1c-0.7-0.1-1.4-0.2-2-0.4c-0.7-0.2-1.3-0.4-1.9-0.7c-0.6-0.3-1.1-0.6-1.5-1c-0.4-0.4-0.8-0.8-1-1.3
			c-0.3-0.5-0.4-1-0.4-1.5c0-0.5,0.1-0.9,0.3-1.2s0.5-0.6,0.8-0.8c0.3-0.2,0.7-0.4,1.1-0.5c0.4-0.1,0.8-0.2,1.3-0.2L629.6,926.5z"/>
		<path class="st4" d="M676.6,893.6c1.1,2.4,2.1,4.8,3.2,7.2s2.2,4.9,3.3,7.4c0.7-1.2,1.4-2.3,2.1-3.5s1.4-2.4,2.2-3.7
			c0.7-1.3,1.5-2.7,2.3-4.1c0.8-1.5,1.7-3,2.7-4.7c0.2-0.3,0.4-0.6,0.6-0.8c0.2-0.2,0.4-0.4,0.7-0.5c0.2-0.1,0.5-0.2,0.8-0.2
			c0.3,0,0.6-0.1,0.9-0.1c0.5,0,1,0.1,1.6,0.2s1.2,0.4,1.7,0.8c-1.3,1.4-2.5,3-3.8,4.6c-1.3,1.6-2.5,3.3-3.7,5
			c-1.2,1.7-2.4,3.4-3.5,5.1c-1.1,1.7-2.2,3.3-3.2,4.9c1.4,3,2.7,5.9,4,8.8s2.6,5.7,3.9,8.4c0.3,0.6,0.6,1.1,0.9,1.4
			c0.3,0.4,0.7,0.7,1,0.9c0.4,0.2,0.7,0.4,1.1,0.4c0.4,0.1,0.8,0.1,1.2,0.1c0.6,0,1.1-0.1,1.7-0.2c0.6-0.1,1.2-0.3,1.8-0.5l0.5,1.5
			c-1.6,0.7-3,1.2-4.3,1.6s-2.5,0.6-3.4,0.6c-0.4,0-0.8,0-1.2-0.1c-0.4-0.1-0.7-0.2-1.1-0.4c-0.3-0.2-0.6-0.5-0.9-0.9
			c-0.3-0.4-0.6-0.9-0.9-1.5c-1.2-2.7-2.5-5.4-3.7-8.1c-1.2-2.8-2.5-5.5-3.7-8.3c-1.2,2-2.4,3.9-3.4,5.8c-1.1,1.8-2.1,3.6-2.9,5.2
			c-0.9,1.6-1.7,3.1-2.4,4.4s-1.3,2.4-1.8,3.3l-6,0.7l-0.2-0.2c1.9-2.5,3.6-4.8,5.1-6.8c1.5-2.1,2.9-4,4.1-5.7
			c1.2-1.8,2.4-3.4,3.4-4.9c1-1.5,2-3,2.9-4.4c-0.6-1.4-1.3-2.8-1.9-4.2c-0.6-1.4-1.2-2.7-1.8-4.1c-0.6-1.3-1.2-2.6-1.8-3.9
			c-0.6-1.3-1.2-2.5-1.7-3.7c-0.3-0.5-0.5-1-0.8-1.4c-0.3-0.4-0.6-0.6-0.9-0.9c-0.3-0.2-0.7-0.4-1-0.4c-0.4-0.1-0.8-0.1-1.3-0.1
			c-0.8,0-1.8,0.1-3,0.3l-0.2-1.6c1.9-0.5,3.4-0.8,4.6-1.1c1.2-0.3,2.2-0.4,3-0.4c0.5,0,0.9,0.1,1.2,0.2c0.3,0.1,0.6,0.3,0.9,0.6
			c0.3,0.3,0.5,0.6,0.7,1C676.1,892.6,676.4,893.1,676.6,893.6z"/>
		<path class="st4" d="M710.1,895.1c0.5,1.4,1,3.2,1.5,5.2c0.5,2,1.1,4.4,1.8,7.2c0.6,2.8,1.3,5.9,2,9.5s1.4,7.6,2.2,12.1h0.1
			c1.2-2.2,2.3-4.4,3.4-6.6c1.1-2.2,2.1-4.3,3.1-6.4c1-2.1,1.8-4.1,2.7-6c0.8-1.9,1.5-3.7,2.1-5.4c0.6-1.7,1-3.2,1.4-4.6
			c0.3-1.4,0.5-2.6,0.5-3.6c0-2.6-0.9-4.7-2.6-6.1l0.1-0.3c0.2,0,0.5-0.1,0.7-0.1c0.2,0,0.5,0,0.8,0c0.6,0,1.3,0.1,1.9,0.2
			c0.6,0.2,1.2,0.4,1.6,0.8c0.5,0.4,0.9,0.8,1.2,1.4c0.3,0.6,0.5,1.4,0.5,2.3c0,0.8-0.2,1.9-0.6,3.3c-0.4,1.4-0.9,3.1-1.7,5
			c-0.7,1.9-1.6,4-2.6,6.3c-1,2.3-2.2,4.8-3.5,7.5c-1.3,2.6-2.7,5.4-4.2,8.3c-1.5,2.9-3.1,5.9-4.9,8.9l-3,0.2L714,934
			c-1.9-9.8-3.6-17.8-4.9-23.9c-1.3-6.1-2.5-10.5-3.5-13.1c-0.2-0.7-0.5-1.2-0.8-1.7c-0.3-0.5-0.6-0.9-0.9-1.2s-0.7-0.5-1.2-0.6
			c-0.5-0.1-1-0.2-1.6-0.2c-0.4,0-0.9,0-1.4,0.1c-0.5,0.1-1.1,0.1-1.7,0.2l-0.2-1.7c1.9-0.5,3.5-0.9,4.8-1.1
			c1.3-0.3,2.4-0.4,3.2-0.4c0.6,0,1.2,0.1,1.6,0.3c0.4,0.2,0.8,0.5,1,0.8c0.3,0.4,0.6,0.9,0.8,1.4
			C709.6,893.6,709.9,894.3,710.1,895.1z"/>
	</g>
	<g class="st2">
		<path class="st3" d="M427.9,998.8c-2.1,0-4-0.4-5.7-1.1c-1.7-0.7-3.2-1.8-4.5-3.2c-1.2-1.4-2.2-3.2-2.9-5.3s-1-4.6-1-7.3
			c0-1.8,0.1-3.5,0.4-5.2c0.3-1.7,0.7-3.3,1.3-4.8c0.6-1.5,1.3-2.9,2.1-4.1s1.8-2.3,3-3.2s2.4-1.6,3.8-2.1s3-0.8,4.7-0.8
			c2.1,0,4,0.4,5.7,1.1c1.7,0.7,3.2,1.8,4.5,3.2c1.2,1.4,2.2,3.2,2.9,5.3s1,4.6,1,7.3c0,1.8-0.1,3.5-0.4,5.2
			c-0.3,1.7-0.7,3.3-1.3,4.8c-0.6,1.5-1.3,2.9-2.1,4.1c-0.9,1.2-1.8,2.3-3,3.2s-2.4,1.6-3.8,2.1S429.6,998.8,427.9,998.8z
			 M428.6,996.8c1.2,0,2.3-0.2,3.2-0.6c1-0.4,1.8-0.9,2.6-1.6c0.8-0.7,1.4-1.6,2-2.6c0.6-1,1-2.1,1.4-3.4c0.4-1.2,0.6-2.6,0.8-4
			c0.2-1.4,0.3-2.9,0.3-4.5c0-2.8-0.3-5.2-0.8-7.3c-0.5-2.1-1.3-3.8-2.2-5.1c-0.9-1.3-2-2.4-3.3-3c-1.3-0.7-2.6-1-4-1
			c-1.2,0-2.3,0.2-3.2,0.6c-1,0.4-1.8,0.9-2.6,1.6c-0.8,0.7-1.4,1.6-2,2.6s-1,2.1-1.4,3.4c-0.4,1.2-0.6,2.6-0.8,4
			c-0.2,1.4-0.3,2.9-0.3,4.5c0,2.8,0.3,5.2,0.8,7.3c0.5,2.1,1.3,3.8,2.2,5.1c0.9,1.3,2,2.4,3.3,3S427.2,996.8,428.6,996.8z"/>
		<path class="st3" d="M461.9,982.2c0.3-0.6,0.4-1.1,0.4-1.7c0-0.4-0.1-0.8-0.2-1.1c-0.1-0.4-0.3-0.7-0.6-0.9s-0.6-0.5-1-0.6
			s-0.9-0.2-1.5-0.2c-0.8,0-1.5,0.1-2.2,0.4c-0.6,0.3-1.2,0.7-1.7,1.2c-0.5,0.5-0.9,1.1-1.2,1.7s-0.6,1.3-0.8,2.1s-0.4,1.5-0.5,2.3
			c-0.1,0.8-0.2,1.5-0.2,2.3c0,1.3,0.2,2.5,0.5,3.6s0.8,2,1.4,2.8s1.3,1.4,2,1.8c0.8,0.4,1.6,0.6,2.5,0.6c0.9,0,1.9-0.2,2.8-0.7
			c1-0.5,1.9-1.3,2.8-2.4c0.1,0,0.1,0.1,0.2,0.1c0.1,0.1,0.2,0.1,0.3,0.2c0.1,0.1,0.2,0.1,0.2,0.2c0.1,0.1,0.1,0.1,0.1,0.2
			c0,0,0,0.1,0,0.1l0,0.1c-1,1.6-2.2,2.8-3.6,3.6c-1.4,0.8-2.9,1.2-4.6,1.2c-0.9,0-1.7-0.1-2.5-0.4c-0.8-0.2-1.4-0.6-2.1-1
			c-0.6-0.4-1.2-1-1.6-1.6c-0.5-0.6-0.9-1.3-1.2-2c-0.3-0.7-0.5-1.5-0.7-2.2s-0.2-1.6-0.2-2.4c0-1.1,0.1-2.2,0.4-3.2
			c0.2-1.1,0.6-2.1,1-3.1c0.5-1,1-1.9,1.7-2.8c0.7-0.9,1.4-1.6,2.2-2.3s1.7-1.1,2.7-1.5c1-0.4,2.1-0.5,3.2-0.5
			c0.8,0,1.6,0.1,2.4,0.3c0.7,0.2,1.4,0.5,1.9,0.9s0.9,0.8,1.2,1.4c0.3,0.5,0.5,1.1,0.5,1.8c0,0.4-0.1,0.8-0.2,1.1
			c-0.1,0.3-0.3,0.6-0.5,0.8c-0.2,0.2-0.5,0.4-0.8,0.5c-0.3,0.1-0.7,0.2-1,0.2c-0.2,0-0.5,0-0.7-0.1c-0.2,0-0.5-0.1-0.7-0.2
			L461.9,982.2z"/>
		<path class="st3" d="M478.3,964.7c-0.4,1.9-0.8,4-1.1,6c-0.3,2.1-0.5,4.1-0.7,6.1c0.5,0,1,0,1.4,0c0.5,0,0.9,0,1.3,0
			c0.4,0,0.8,0,1.1,0s0.6,0,0.8,0c0.9,0,1.7-0.1,2.3-0.2c0.1,0.2,0.1,0.3,0.1,0.5c0,0.1,0,0.3,0,0.4c0,0.5-0.2,0.7-0.6,0.9
			c-0.4,0.1-0.9,0.2-1.6,0.2c-0.7,0-1.4,0-2.3-0.1s-1.8-0.2-2.7-0.2c-0.1,1.1-0.2,2.2-0.3,3.2c-0.1,1-0.1,2-0.2,2.9
			c0,0.9-0.1,1.8-0.1,2.6c0,0.8,0,1.5,0,2.1c0,1.1,0.1,2.1,0.2,2.9s0.3,1.6,0.6,2.2s0.7,1.1,1.2,1.4s1.1,0.5,1.9,0.5
			c0.6,0,1.2-0.1,1.9-0.3c0.7-0.2,1.5-0.5,2.3-0.9c0.3,0.3,0.4,0.6,0.5,1c-0.6,0.4-1.3,0.8-1.9,1.1c-0.6,0.3-1.3,0.6-1.9,0.9
			c-0.6,0.2-1.2,0.4-1.8,0.6c-0.6,0.1-1.1,0.2-1.7,0.2c-0.7,0-1.3-0.1-1.9-0.4c-0.6-0.2-1.1-0.7-1.5-1.3s-0.7-1.5-1-2.6
			c-0.2-1.1-0.3-2.5-0.3-4.1c0-0.9,0-1.9,0-2.9c0-1,0.1-2,0.1-3c0.1-1,0.1-2,0.2-3s0.2-2,0.3-3c-0.8,0-1.6,0-2.3,0.1
			s-1.3,0.1-1.8,0.3c0-0.1,0-0.1,0-0.2c0-0.2,0.1-0.4,0.3-0.6c0.2-0.2,0.5-0.4,0.9-0.5c0.4-0.2,0.8-0.3,1.3-0.4
			c0.5-0.1,1.1-0.2,1.7-0.2c0.2-2.1,0.5-4.2,0.8-6.1c0.3-1.9,0.5-3.6,0.8-5.1c0.1-0.3,0.1-0.5,0.3-0.7c0.1-0.2,0.3-0.3,0.5-0.4
			c0.2-0.1,0.4-0.2,0.6-0.2s0.4-0.1,0.6-0.1c0.3,0,0.6,0,0.9,0.1C477.8,964.5,478,964.6,478.3,964.7z"/>
		<path class="st3" d="M491.1,998.6c-0.4,0-0.7-0.1-1-0.2c-0.3-0.2-0.5-0.3-0.7-0.6s-0.4-0.5-0.5-0.8c-0.1-0.3-0.2-0.6-0.2-1
			c0-0.5,0.1-0.9,0.2-1.2s0.4-0.7,0.6-0.9c0.3-0.2,0.5-0.4,0.8-0.5s0.6-0.2,0.9-0.2c0.3,0,0.7,0.1,1,0.2c0.3,0.1,0.5,0.3,0.7,0.5
			c0.2,0.2,0.4,0.5,0.5,0.8c0.1,0.3,0.2,0.6,0.2,1c0,0.4-0.1,0.7-0.2,1.1s-0.3,0.7-0.5,1c-0.2,0.3-0.5,0.5-0.8,0.7
			C491.8,998.5,491.5,998.6,491.1,998.6z"/>
		<path class="st3" d="M512.2,996.8c1.7-1.2,3.2-2.4,4.5-3.5c1.3-1.1,2.5-2.1,3.4-3c1-0.9,1.8-1.8,2.4-2.6c0.7-0.8,1.2-1.5,1.6-2.2
			c0.4-0.7,0.7-1.3,0.9-1.9c0.2-0.6,0.3-1.2,0.3-1.7c0-0.9-0.2-1.6-0.5-2.3c-0.3-0.6-0.7-1.1-1.2-1.5c-0.5-0.4-1.1-0.7-1.7-0.8
			c-0.6-0.2-1.2-0.3-1.8-0.3c-0.7,0-1.4,0.1-1.9,0.3c-0.5,0.2-0.9,0.4-1.3,0.7c-0.3,0.3-0.6,0.6-0.7,1c-0.1,0.4-0.2,0.8-0.2,1.2
			c0,0.6,0.1,1.2,0.4,1.8c0.2,0.6,0.6,1.1,1.1,1.5l-0.1,0.2c-0.6,0.3-1.2,0.4-1.8,0.4c-0.4,0-0.7-0.1-1.1-0.2
			c-0.3-0.1-0.7-0.3-0.9-0.5s-0.5-0.5-0.6-0.9c-0.2-0.3-0.2-0.7-0.2-1.2c0-0.6,0.1-1.2,0.4-1.7c0.3-0.5,0.7-1.1,1.2-1.5
			s1.1-0.9,1.7-1.2c0.7-0.4,1.3-0.7,2.1-0.9s1.4-0.4,2.2-0.6c0.7-0.1,1.4-0.2,2.1-0.2c0.9,0,1.8,0.1,2.6,0.4s1.5,0.6,2.1,1.1
			c0.6,0.5,1.1,1,1.4,1.7s0.5,1.4,0.5,2.3c0,0.6-0.1,1.3-0.2,1.9s-0.4,1.3-0.8,2.1c-0.4,0.7-0.9,1.5-1.6,2.3
			c-0.7,0.8-1.5,1.7-2.5,2.6c-1,0.9-2.2,1.9-3.6,2.9c-1.4,1-3,2.2-4.8,3.4l0,0.1c1-0.3,1.9-0.5,3-0.7s2-0.4,2.9-0.5
			c0.9-0.1,1.8-0.3,2.7-0.3c0.9-0.1,1.6-0.1,2.3-0.1c0.6,0,1.1,0,1.5,0.1c0.4,0.1,0.8,0.2,1.1,0.4s0.6,0.4,0.7,0.6
			c0.2,0.3,0.3,0.6,0.3,0.9c0,0.5-0.1,1-0.4,1.7c-1.5-0.1-2.9-0.2-4.3-0.3c-1.4-0.1-2.8-0.1-4.3-0.1c-1.4,0-2.7,0-4.2,0.1
			c-1.4,0.1-3,0.2-4.6,0.3L512.2,996.8z"/>
		<path class="st3" d="M556.8,976.6c-2.5,4.6-5,9.6-7.5,15c-2.4,5.4-4.8,11.2-7.2,17.4l-3.4,0.3l-0.3-0.1c2.3-5,4.7-9.9,7.1-14.8
			c2.4-4.9,4.8-9.8,7.4-14.7c-0.8,0-1.6,0-2.3,0c-0.7,0-1.4,0-2.1,0c-0.7,0-1.3,0-1.9,0c-0.6,0-1.2,0-1.7,0h-2.2
			c-0.8,0-1.5,0-2.1,0.1c-0.6,0-1.1,0.1-1.5,0.3s-0.8,0.3-1.1,0.6c-0.3,0.3-0.5,0.6-0.7,1c-0.2,0.4-0.3,0.9-0.4,1.6
			s-0.2,1.4-0.3,2.2l-1.6,0l0.1-1.7c0.1-1,0.1-1.9,0.1-2.7c0-0.8,0.1-1.4,0.2-2c0.1-0.6,0.2-1,0.3-1.4c0.1-0.4,0.3-0.7,0.6-0.9
			c0.2-0.2,0.5-0.4,0.9-0.5c0.3-0.1,0.8-0.1,1.3-0.1c0.3,0,0.7,0,1.2,0.1c0.5,0,1.1,0.1,1.7,0.1c0.7,0,1.4,0.1,2.2,0.1
			c0.8,0,1.7,0.1,2.6,0.1c0.9,0,1.7,0,2.5,0s1.6,0,2.4,0c0.8,0,1.7-0.1,2.5-0.1s1.8-0.1,2.7-0.2L556.8,976.6z"/>
		<path class="st3" d="M573.8,996.8c1.7-1.2,3.2-2.4,4.5-3.5c1.3-1.1,2.5-2.1,3.4-3c1-0.9,1.8-1.8,2.4-2.6c0.7-0.8,1.2-1.5,1.6-2.2
			s0.7-1.3,0.9-1.9c0.2-0.6,0.3-1.2,0.3-1.7c0-0.9-0.2-1.6-0.5-2.3c-0.3-0.6-0.7-1.1-1.2-1.5c-0.5-0.4-1.1-0.7-1.7-0.8
			s-1.2-0.3-1.8-0.3c-0.7,0-1.4,0.1-1.9,0.3c-0.5,0.2-0.9,0.4-1.3,0.7c-0.3,0.3-0.6,0.6-0.7,1c-0.1,0.4-0.2,0.8-0.2,1.2
			c0,0.6,0.1,1.2,0.4,1.8c0.2,0.6,0.6,1.1,1.1,1.5l-0.1,0.2c-0.6,0.3-1.2,0.4-1.8,0.4c-0.4,0-0.7-0.1-1.1-0.2
			c-0.3-0.1-0.7-0.3-0.9-0.5s-0.5-0.5-0.6-0.9c-0.2-0.3-0.2-0.7-0.2-1.2c0-0.6,0.1-1.2,0.4-1.7s0.7-1.1,1.2-1.5
			c0.5-0.5,1.1-0.9,1.7-1.2c0.7-0.4,1.3-0.7,2.1-0.9s1.4-0.4,2.2-0.6c0.7-0.1,1.4-0.2,2.1-0.2c0.9,0,1.8,0.1,2.6,0.4
			s1.5,0.6,2.1,1.1s1.1,1,1.4,1.7s0.5,1.4,0.5,2.3c0,0.6-0.1,1.3-0.2,1.9s-0.4,1.3-0.8,2.1c-0.4,0.7-0.9,1.5-1.6,2.3
			c-0.7,0.8-1.5,1.7-2.5,2.6c-1,0.9-2.2,1.9-3.6,2.9c-1.4,1-3,2.2-4.8,3.4l0,0.1c1-0.3,1.9-0.5,3-0.7c1-0.2,2-0.4,2.9-0.5
			c0.9-0.1,1.8-0.3,2.7-0.3c0.9-0.1,1.6-0.1,2.3-0.1c0.6,0,1.1,0,1.5,0.1c0.4,0.1,0.8,0.2,1.1,0.4c0.3,0.2,0.6,0.4,0.7,0.6
			c0.2,0.3,0.3,0.6,0.3,0.9c0,0.5-0.1,1-0.4,1.7c-1.5-0.1-2.9-0.2-4.3-0.3c-1.4-0.1-2.8-0.1-4.3-0.1c-1.4,0-2.7,0-4.2,0.1
			c-1.4,0.1-3,0.2-4.6,0.3L573.8,996.8z"/>
		<path class="st3" d="M608.4,975.3c1.4,0,2.7,0.2,4,0.7c1.2,0.5,2.3,1.2,3.1,2.1c0.9,0.9,1.6,2.1,2.1,3.4c0.5,1.3,0.7,2.9,0.7,4.7
			c0,1.3-0.1,2.5-0.4,3.6s-0.6,2.2-1.1,3.1c-0.5,0.9-1.1,1.8-1.7,2.5c-0.7,0.7-1.4,1.4-2.3,1.9c-0.8,0.5-1.7,0.9-2.7,1.2
			c-0.9,0.3-1.9,0.4-3,0.4c-1.4,0-2.7-0.2-3.9-0.7s-2.3-1.2-3.2-2.1s-1.6-2.1-2.1-3.4c-0.5-1.4-0.8-2.9-0.8-4.7
			c0-1.3,0.1-2.4,0.4-3.6c0.3-1.1,0.6-2.1,1.1-3.1s1.1-1.8,1.8-2.5c0.7-0.7,1.4-1.4,2.3-1.9s1.7-0.9,2.7-1.2
			C606.3,975.4,607.3,975.3,608.4,975.3z M608.2,996.8c1,0,1.9-0.2,2.6-0.7c0.8-0.4,1.4-1.1,2-1.9c0.5-0.8,0.9-1.7,1.2-2.8
			c0.3-1.1,0.4-2.3,0.4-3.6c0-0.9-0.1-1.8-0.2-2.7s-0.4-1.7-0.7-2.5c-0.3-0.8-0.7-1.5-1.1-2.1c-0.4-0.6-0.9-1.2-1.5-1.6
			c-0.5-0.5-1.1-0.8-1.8-1.1s-1.3-0.4-2.1-0.4c-0.9,0-1.7,0.2-2.5,0.6c-0.8,0.4-1.4,1-2,1.8c-0.6,0.8-1,1.7-1.3,2.8
			c-0.3,1.1-0.5,2.4-0.5,3.8c0,1.4,0.2,2.7,0.5,3.9c0.3,1.3,0.8,2.4,1.5,3.3c0.6,1,1.4,1.7,2.3,2.3
			C606.1,996.5,607.1,996.8,608.2,996.8z"/>
		<path class="st3" d="M623.5,996.8c1.7-1.2,3.2-2.4,4.5-3.5c1.3-1.1,2.5-2.1,3.4-3c1-0.9,1.8-1.8,2.4-2.6c0.7-0.8,1.2-1.5,1.6-2.2
			s0.7-1.3,0.9-1.9c0.2-0.6,0.3-1.2,0.3-1.7c0-0.9-0.2-1.6-0.5-2.3c-0.3-0.6-0.7-1.1-1.2-1.5c-0.5-0.4-1.1-0.7-1.7-0.8
			s-1.2-0.3-1.8-0.3c-0.7,0-1.4,0.1-1.9,0.3c-0.5,0.2-0.9,0.4-1.3,0.7c-0.3,0.3-0.6,0.6-0.7,1c-0.1,0.4-0.2,0.8-0.2,1.2
			c0,0.6,0.1,1.2,0.4,1.8c0.2,0.6,0.6,1.1,1.1,1.5l-0.1,0.2c-0.6,0.3-1.2,0.4-1.8,0.4c-0.4,0-0.7-0.1-1.1-0.2
			c-0.3-0.1-0.7-0.3-0.9-0.5s-0.5-0.5-0.6-0.9c-0.2-0.3-0.2-0.7-0.2-1.2c0-0.6,0.1-1.2,0.4-1.7s0.7-1.1,1.2-1.5
			c0.5-0.5,1.1-0.9,1.7-1.2c0.7-0.4,1.3-0.7,2.1-0.9s1.4-0.4,2.2-0.6c0.7-0.1,1.4-0.2,2.1-0.2c0.9,0,1.8,0.1,2.6,0.4
			s1.5,0.6,2.1,1.1s1.1,1,1.4,1.7s0.5,1.4,0.5,2.3c0,0.6-0.1,1.3-0.2,1.9s-0.4,1.3-0.8,2.1c-0.4,0.7-0.9,1.5-1.6,2.3
			c-0.7,0.8-1.5,1.7-2.5,2.6c-1,0.9-2.2,1.9-3.6,2.9c-1.4,1-3,2.2-4.8,3.4l0,0.1c1-0.3,1.9-0.5,3-0.7c1-0.2,2-0.4,2.9-0.5
			c0.9-0.1,1.8-0.3,2.7-0.3c0.9-0.1,1.6-0.1,2.3-0.1c0.6,0,1.1,0,1.5,0.1c0.4,0.1,0.8,0.2,1.1,0.4c0.3,0.2,0.6,0.4,0.7,0.6
			c0.2,0.3,0.3,0.6,0.3,0.9c0,0.5-0.1,1-0.4,1.7c-1.5-0.1-2.9-0.2-4.3-0.3c-1.4-0.1-2.8-0.1-4.3-0.1c-1.4,0-2.7,0-4.2,0.1
			c-1.4,0.1-3,0.2-4.6,0.3L623.5,996.8z"/>
		<path class="st3" d="M645.3,997.4c1.8-2.6,3.4-4.9,4.7-6.9s2.4-3.8,3.3-5.4c0.9-1.6,1.6-3,2.2-4.2c0.6-1.2,1-2.3,1.3-3.3
			c0.3-1,0.6-1.9,0.8-2.6c0.2-0.8,0.3-1.6,0.5-2.3c0.5,0,1,0.1,1.4,0.2c0.4,0.1,0.7,0.3,0.9,0.5s0.4,0.4,0.5,0.7
			c0.1,0.3,0.2,0.6,0.2,0.9c0,0.6-0.2,1.4-0.5,2.2s-0.8,1.9-1.4,3s-1.3,2.3-2.1,3.5c-0.8,1.3-1.7,2.6-2.6,3.9
			c-0.9,1.3-1.9,2.7-2.9,4.1c-1,1.4-2,2.8-3,4.2l0,0.1c2-0.3,3.9-0.5,5.7-0.7c1.8-0.2,3.7-0.4,5.4-0.5c0-0.6,0.1-1.2,0.1-1.8
			c0-0.6,0.1-1.3,0.1-2c0-0.7,0.1-1.6,0.1-2.5c0-0.9,0.1-2,0.1-3.2c0-0.4,0.1-0.7,0.2-0.9c0.1-0.3,0.3-0.5,0.5-0.7
			c0.2-0.2,0.4-0.3,0.7-0.4c0.3-0.1,0.5-0.1,0.8-0.1c0.2,0,0.5,0,0.7,0.1c0.3,0.1,0.5,0.2,0.7,0.3c-0.1,1-0.2,1.9-0.2,2.8
			c-0.1,0.8-0.1,1.7-0.2,2.5c-0.1,0.8-0.1,1.7-0.2,2.6c-0.1,0.9-0.1,2-0.2,3.1c0.9,0,1.7,0,2.5,0c0.6,0,1.1,0,1.5,0.1
			c0.4,0,0.8,0.1,1.1,0.3c0.3,0.1,0.5,0.3,0.7,0.5c0.2,0.2,0.2,0.5,0.2,0.9c0,0.5-0.1,1.1-0.4,1.7c-1-0.1-1.9-0.1-2.9-0.2
			c-0.9,0-1.9-0.1-2.9-0.1c0,0.9-0.1,1.7-0.1,2.5c0,0.8-0.1,1.6-0.1,2.4c0,0.8-0.1,1.7-0.1,2.7c0,0.9-0.1,2-0.1,3.2l-3.3,0.4l-0.2,0
			c0.1-1.4,0.2-2.7,0.2-3.8c0.1-1.1,0.1-2,0.1-2.9s0.1-1.7,0.1-2.4c0-0.7,0.1-1.5,0.1-2.3c-0.2,0-0.3,0-0.5,0s-0.3,0-0.5,0h-1
			c-1.8,0-3.6,0-5.7,0.1c-2,0.1-4.2,0.2-6.3,0.4L645.3,997.4z"/>
	</g>
</g>
<g id="TEXTS">
	<g>
		<path class="st5" d="M770.9,724.4c-5.4-0.1-11.7-1-18.5,0.6c6.2,9.8,6.7,81.2,1,94.3c6.5,0,12.8,0,17.4,0
			C767.2,787.6,767.2,756.6,770.9,724.4z"/>
		<path class="st5" d="M361.6,727.1c-1-0.1-2-2.8-3.1,0c-4.1-3.7-9-2.2-13.7-2.1c0,0.6,0,1.2-0.2,1.8c9.5,1.3,17.9,4.6,25.6,10.7
			c15.9,12.5,23,50,4.4,72.1c0,0,0,0,0,0c-0.3,0.5-0.6,0.9-0.7,1.3c-14.9,6.2-28.3,9.3-42.3,4.5c-1.7-4.5-1.8-9.2-1.8-13.9
			c0-24.5,0-49.1,0-73.6c4.8-2,9.9-0.2,14.8-1.1c0.2-0.6,0.2-1.2,0.2-1.8c-5.1-1.9-10.3-1.4-15.5-0.2c-4.8-0.4-9.7-1.2-14.8,0.8
			c3.4,4.3,4,8.9,4,13.7c0,21.3,0,42.7-0.1,64c0,4.4,0.1,8.8-2.2,12.8c-5.1,3.6-2.1,4.1,1.6,4c13.5-0.2,27,0,40.4-1
			c5.1-0.4,11-0.9,15.8-7.5c0.1,0.2,0.3,0.4,0.6,0.6c1.3,0.8,2-0.2,2.8-1.1c15.9-10.2,23.6-29.3,19.9-49.9
			C394.1,742.7,379,728.3,361.6,727.1z"/>
		<path class="st5" d="M708.2,724.5c-5.7-0.6-11.8-1.4-17.6,0.6c-8.3-2.1-16.6-2-24.9-0.1c-5.2-1-10.4-1.4-13.8-0.2
			c2.7,32.2,3.2,63.3-0.3,94.8c4.5,0.1,11,0.7,15.9-0.2c-3.9-17-2.4-33.8-1.8-50.5c8.2,0,16.3,0,24.5-0.1l0,0
			c5.2,1.3,9.5,3.8,13.1,9.9c0.6-8,1.2-14.2-0.6-22.1c-3.1,6.2-7.4,8.3-12.3,9.7c-8.4-0.1-16.8-0.2-25.2-0.3c0.1-13,0.2-26,0.3-39
			c8.3-0.1,16.5-0.3,24.8-0.4c9.1,0.2,16.7,3.4,22.7,11.1C710.8,733.2,717.7,725.5,708.2,724.5z"/>
		<path class="st5" d="M492,816c-11.5,2-23.2,1-34.9,2.2c0.2-0.6,0.3-1.4,0.1-2.6c-2.4-14.8-0.6-29.9-1-44.8
			c8.2-0.3,16.5-0.6,24.7-0.8c5.8,0.6,10.8,2.7,15,9.6c0-8.4,0-14.1,0-22.9c-3.6,7.5-8.2,9.6-13.4,10.6c-8.8-0.8-17.6,1.2-26.4-0.7
			c0-13.1,0-26.1,0-39.2c-0.1-0.8-0.1-1.6-0.2-2.4c-4.9-0.7-9.8-1.3-15.4,0.6c4.3,4.9,4.1,10.6,4.1,16.3c0,19.4,0,38.8,0,58.3
			c0,5.3,0.1,10.7-2.1,15.7c-1.5,0.4-2.8,1.4-2.6,2.9c0.1,1.1,1.6,1.4,2.8,0.8c3.7,0,7.5,0.2,11.2,0c1.4-0.1,2.5-0.2,3-1.2
			c1,1.1,2.1,1.6,3.1,1.5c10.6-0.1,21.2-0.2,31.8-0.3c16.5,0.7,17.8-0.8,14-17.3C502.8,808.8,498.1,813.2,492,816z"/>
		<path class="st5" d="M597.8,816c-11.2,0.7-22.4,3.3-33.4-1c-0.5-30.1-2.3-60.2,1.3-90.5c-4.8-0.3-10.9-0.9-18.2,0.7
			c4.7,4.9,4.9,10.1,4.9,15.5c0,20.1,0,40.2,0,60.2c0,5-0.1,10-2.1,14.8c-1.6,0.4-2.8,1.4-2.6,3c0.2,1.2,1.6,1.4,2.8,0.8
			c4.4,0,8.7,0,13.1,0c11.4,0.9,22.8,0.8,34.2,0c14.4,0.6,14.4,0.6,12.2-15.5C606.6,809.6,603.1,813.8,597.8,816z"/>
		<path class="st5" d="M478.8,726.5c0.1-0.2,0.2-0.5,0.2-0.7C479,726.1,478.9,726.3,478.8,726.5c10.6,0.4,18.8,5.1,24.4,15.7
			c1-18.1,1-18.2-15-18.1c-3.1,0-6.3-0.5-9.3,1c-7.7-2.1-15.3-1.8-23-0.2c0.1,0.8,0.1,1.6,0.2,2.4
			C463.7,727.1,471.3,726.8,478.8,726.5z"/>
	</g>
	<path class="st3" d="M499.9,683.4c0.6-1.1,1.7-2.4,2.7-1.6c1.3,1.1,0.7,2.8-0.1,4.3C501.7,685.2,500.8,684.3,499.9,683.4z"/>
	<g>
		<g>
			<path class="st5" d="M512.4,342.6c-5.5-14.7-7.7-30.2-10.6-45.5c-3.1-16.2-6.1-32.5-14.7-46.9c-3.8-6.3-8.4-12.5-16-13
				c-12.8-0.8-25.6-0.2-39.7-0.2c6.1,5.7,5.9,12.1,5.1,18.6c-0.6,4.9-2,9.6-3.7,14.2c-4.8,12.8-11.7,24.5-18.3,36.4
				c-5.6,10.1-11.4,20.2-15,31.3c-7.8,24.7,9.6,45.8,35,42.6c8.9-1.1,12.6-4.3,14.9-12.7c2.8-10.5,5.5-21.1,8.3-31.6
				c2.6-9.6,5.3-19.2,8.4-30.5c2.3,12,4,22,6.2,32c2.8,12.4,5.8,24.8,13.9,35.1c6.6,8.4,13.7,10.2,23,5.5
				c7.5-3.8,14.6-8.5,22.7-13.2C520.2,358.4,516.8,354.6,512.4,342.6z M454.1,335.7c-4.7,10.5-10.5,14.4-18.5,13
				c-9.5-1.7-15.5-8.5-16.5-19.1c-0.6-7.6,1-15.1,3.4-22.3c5.8-17.7,13.5-34.8,17.8-53.1c0.4-1.8,1-4.3,3.5-4.2c3,0.1,4.6,2.2,6,4.7
				c7.6,13.5,11.5,27.9,11.7,44.8C461.1,311,459.5,323.8,454.1,335.7z"/>
			<path class="st5" d="M632.1,235.8c-3.5,0.8-7.6,2.3-8.8,5.6c-3.5,9.6-6.1,19.5-9.3,30.4c3-1.5,4.5-2.4,6.1-3.1
				c17.5-7.8,32.6,2.6,31.3,21.7c-0.4,5.6-1.5,11-3.2,16.4c-5.6,17.6-13.3,34.5-17.7,52.5c-0.6,2.3-0.9,5.5-3.7,5.8
				c-2.9,0.4-4.7-2.1-6-4.6c-4-7-6.6-14.6-9.2-22.2c-7.4-21.6-9-44.5-14.7-66.5c-2.5-10-5.5-19.8-11.7-28.2
				c-4.7-6.4-10.7-10.6-18.9-8.2c-10.2,3-18.4,9.6-28.2,16c15,3.9,18.6,15.6,22.2,27.1c4,12.8,6,26,8.5,39.2
				c3,16.2,6.1,32.5,14.7,47c3.6,6,7.9,11.9,15.3,13c13.2,2,26.4,0.5,41.2,0.9c-6.3-5.6-6.6-11.2-6.2-17.1c0.4-4.5,1.4-8.8,2.8-13
				c5.3-15.3,13.7-29,21.3-43.1c5.5-10.2,11.3-20.2,14-31.7C677.7,249.9,658.2,229.9,632.1,235.8z"/>
			<g>
				<path class="st5" d="M377.8,300.6c-6.1-4.2-13-6.7-20.1-8.9c-14.2-4.5-29.1-6.7-43-12.2c-15-5.9-18.5-12.1-15.1-29
					c-2.3,2.4-3.4,3.5-4.4,4.6c-22,24.9-17.5,45.8,12.8,59.1c14.1,6.2,29.4,9,43.9,13.8c6.8,2.2,13.6,4.5,19.1,9.4
					c7.6,6.8,6,16.2-3.4,20.2c-6.2,2.7-12.5,3-19,1.6c-17.7-3.6-31.1-14-42-27.8c-2.5-3.2-4.1-3.8-7.4-1.1
					c-5.7,4.6-11.7,8.9-16.5,14.6c-5.6,6.6-5.9,12.5,0.6,18.1c16.4,14.1,36.1,21.1,57,15.8c23.8-6.1,39.9-23,48.2-46.2
					C393.5,318.9,389.4,308.5,377.8,300.6z"/>
				<path class="st5" d="M306.9,248.8c4.4-2,9.1-2,13.8-1.6c15.2,1.5,25.6,11.3,36.2,21c4.1,3.8,6.3,12.2,12.4,11
					c5.6-1.1,9.9-7.2,14.2-11.7c1.1-1.1,2.1-2.3,3.1-3.5c8.1-10.2,6.8-15.6-5.3-20.6c-14.4-5.9-29.6-7.9-45-8.8
					c-11.8-0.6-21.6,4.4-30.9,10.9c-0.8,0.6-2.2,1-1.7,2.5C304.2,249.7,305.8,249.3,306.9,248.8z"/>
			</g>
			<g>
				<path class="st5" d="M718.7,323.4c15.5,16,28.2,18.1,43.9,7.8c4.1-2.7,7.9-5.8,11.8-8.7c9.2-6.8,18.7-12.3,31.5-6.3
					c-4.1-9.9-7.6-18.6-11.3-27.4c-3.1-7.4-7.6-9.4-15.5-7.1c-3.7,1.1-7.1,2.7-10.1,5c-7.8,6-15.5,12-23.2,18.1
					c-5.5,4.2-10.7,8.8-17.2,11.3c-2.9,1.1-5.7,1.5-8-1c-2.2-2.4-2.3-5.2-1-8.1c0.6-1.4,1.4-2.8,2.1-4.2c5.9-5,11.7-10,18.4-13.8
					c6.9-3.9,13.7-7.8,20.5-11.7c9.7-4.4,19.6-8.5,29.1-13.5c8.9-4.6,9.4-14.1,1.7-20.7c-3.3-2.8-7.1-4.5-11.3-5.6
					c-24.3-6.6-46.5-3-66.2,13.5c-8.9,7.5-19,14.1-23.7,25c-11.1,25.4-10.9,59.9,11.5,83.8c7,7.5,15.2,12.9,25.3,15.9
					C715.4,359.7,719.3,341.8,718.7,323.4z M718.7,260.9c0.2-10.6,3.3-14.2,13.6-16.3c6.5-1.3,12.9-0.8,19.1,1.5
					c12.5,4.7,16.7,22.5,6.2,29.8c-10.5,6.9-22.3,11.8-32.1,19.8c-2,1.6-4.3,3.1-5.6,5.6c-1.8-1-1.2-2.7-1.2-4.1
					C718.6,285,718.5,272.9,718.7,260.9z"/>
				<path class="st5" d="M791.2,330.8c-0.8-0.4-1.6-0.8-2.4-1.2c-5.2-2.6-7.5-1.5-10.1,4.4c-9.3,21.2-22.3,38.9-47.8,43.1
					c0.5,0.6,0.8,1.1,1.1,1.2c2.4,0.5,4.8,1,7.2,1.3c21,2.4,41.1-0.3,56.6-15.8C812,347.6,807.6,340,791.2,330.8z"/>
			</g>
		</g>
		<g>
			<path class="st5" d="M359.7,450.1c-7.2-26.5-25.8-48.6-64-47.4c-26.3,0.8-52.6,0.2-78.9,0.2c-1.6,0-3.1,0-4.7,0
				c-1.2,0-2.3,0.4-2.5,1.7c-0.2,1.2,0.5,2.2,1.8,2.5c10.4,1.7,10.3,9.8,10.3,17.4c0.1,20.5,0.1,41,0.1,61.6c0,20.3,0,40.6,0,60.9
				c0,3.3-0.2,6.7-0.7,10c-0.6,4-2.8,6.9-6.7,8.4c-1.8,0.7-5.3-0.1-4.5,3.4c0.6,2.5,3.4,1.5,5.3,1.5c28.8,0.1,57.5,0.1,86.3,0
				c25.4-0.1,43.5-12.2,53.7-35.1C367.4,507.5,367.5,478.8,359.7,450.1z M317.6,532.1c-7.6,25.5-25.1,37-51.5,34.1
				c-4.4-0.5-3.5-3.1-3.5-5.6c0-24.8,0-49.5,0-74.2c0-23,0-45.9,0-68.9c0-10.6,0-10.6,10.4-10.6c22.6-0.1,35.7,9.2,43.3,30.5
				c3,8.4,5.1,17.1,6.1,26C325,486.5,324.4,509.5,317.6,532.1z"/>
			<path class="st5" d="M541.5,566.1c-12.6-0.6-14.4-11.1-17.7-19.8c-17.3-45.8-34.7-91.6-51.4-137.6c-2.9-8-8.3-5.2-13.3-5.9
				c-5-0.7-7.3,1.2-9.1,6c-17.5,47.2-35.4,94.2-53,141.3c-2.9,7.7-6.6,14.2-15.5,15.7c-1.5,0.2-2.5,0.7-2.3,2.5
				c0.2,2,1.6,1.8,2.9,1.8c2.9,0,5.8,0,8.7,0c11.4,0,22.8,0.1,34.1,0c1.7,0,4.5,1.2,5-1.7c0.6-3.5-2.5-2.1-4.2-2.5
				c-2.8-0.7-6.2-1.2-7.6-3.8c-4.9-9-9.9-18-9.7-28.7c0-3.8,1.8-4.9,5.4-4.9c18.5,0.1,37,0.1,55.5,0c3.1,0,4.8,1,5.8,4
				c2.5,7.4,5.3,14.7,8,22c2,5.5,1.1,9.7-5.4,11.2c-1.4,0.3-3.4,0.1-3.2,2.4c0.2,2.9,2.5,2,4.1,2c10,0.1,20.1,0,30.1,0c0,0,0,0,0,0
				c10.3,0,20.5,0,30.8,0c1.5,0,3.3,0.3,3.8-1.7C543.5,567.3,542.8,566.2,541.5,566.1z M410.9,524.3c10.1-27,19.9-53.2,30.3-80.8
				c10.4,27.6,20.2,54,30.3,80.8C451,524.3,431.5,524.3,410.9,524.3z"/>
			<path class="st5" d="M712.5,432.4c-0.8-8.9-1.9-17.7-2.7-26.6c-0.3-3.5-2.7-3-4.8-3c-46.4,0-92.8,0-139.2-0.1
				c-3.3,0-4.8,0.8-5,4.3c-0.6,8-1.7,16-2.4,24c-0.2,1.7-2,4.3,0.9,5.2c3,1,3.7-1.9,4.6-3.8c8.6-19,23.4-27,44-25.8
				c5.3,0.3,7.1,1.2,7.1,6.9c-0.3,39.7-0.1,79.4-0.1,119.2c0,6.7,0.2,13.4-0.2,20.1c-0.3,5.8-1.8,11.1-8.5,13
				c-1.3,0.4-3.5-0.2-3.3,2.3c0.2,2.9,2.5,2,4.1,2c11.6,0.1,23.2,0,34.8,0c7.6,0,15.2,0,22.8,0c1.3,0,2.8,0.1,3.2-1.6
				c0.3-1.2-0.3-2.2-1.6-2.4c-10-1.7-10.1-9.4-10.1-16.9c-0.1-22.1,0-44.2,0-66.3c0-23.2,0.2-46.4-0.1-69.6
				c-0.1-5.4,1.8-6.3,6.8-6.6c20.7-1.4,35.5,6.6,44.1,25.6c0.3,0.6,0.6,1.2,0.9,1.8c0.8,1.5,1.7,2.8,3.6,2.3
				C713.5,435.7,712.7,433.8,712.5,432.4z"/>
			<path class="st5" d="M873.6,527.4c-4-1.8-4.3,3.3-5.8,5.7c-11.2,17.6-25,31.7-47.4,32.9c-11.8,0.7-23.6,0.1-35.5,0.2
				c-3.4,0-4.8-1-4.7-4.6c0.2-13.8-0.2-27.7,0.6-41.5c1.5-24.8,22.9-40.5,47.2-35.2c5.5,1.2,11.6,2.9,13.8,8.4
				c2.5,6.3,5.8,4.8,9.7,2.6c4.5-2.4,7.6-6.1,9.5-10.9c6.7-16.4-4.7-33-23.4-34.2c-25.7-1.6-48.1,15.9-55.3,43.1
				c0,1.3-0.3,3.1-1.6,2.9c-2.2-0.3-0.8-2.2-0.8-3.5c0.1-26.6,0.4-53.3,0.2-80c0-5,0.9-6.9,6.4-6.7c11.5,0.4,23.1,0,34.6-0.1
				c19.8-0.5,33.4,8.6,41.3,26.6c0.1,0.2,0.2,0.4,0.3,0.6c0.8,1.7,1.8,3.3,4,2.6c2.2-0.6,1.4-2.6,1.2-3.9
				c-0.8-8.6-1.9-17.2-2.7-25.8c-0.2-2.8-1.4-3.9-4.2-3.9c-13.3,0.2-26.6,0.3-40,0.4c-29.9-0.1-59.9-0.2-89.8-0.2
				c-1.8,0-4.4-0.8-3.7,2.8c1,2.7,3.3,1.7,5.2,2c6,3.7,6.6,9.6,6.6,15.8c0,21.4,0,42.8,0,64.2c0,21.2,0.1,42.4-0.1,63.6
				c0,6.2-1.2,12.2-8.4,14.4c-1.6,0.5-4,0.1-3.6,2.8c0.4,2.7,2.8,1.7,4.3,1.7c11.4,0.1,22.8,0,34.1,0c31.7,0,63.3,0,95-0.1
				c2.2,0,6,1.8,6-2.9c0.1-11.1,4.5-21.3,6.3-32C873.5,532.6,876.5,528.8,873.6,527.4z"/>
		</g>
		<path class="st3" d="M512.1,416.9c-9.1,5.6-17.8,11.8-28.2,14.9c-16.8,5-30.3-1.4-36.5-17.8c-3.8-10-4.8-20.4-4.1-30.9
			c0.4-5.9-1.8-7.4-7.2-6.8c-8.6,0.9-17.4,1.3-26,2c-2.5,0.2-5.4,0.3-5.4-3.2c0-3.1,2.8-3,5-3.1c9.6-0.8,19.1-1.7,28.7-2.2
			c4-0.2,5.9-1.7,6.6-5.8c1.9-10.5,3.8-21.1,8.6-30.8c2.5-5,4.8-12.2,12.1-9.9c7,2.2,5.8,9,4.9,14.9c-1.3,8.4-3.7,16.5-6.5,24.5
			c-1.5,4.2-0.4,5.6,4.1,5.3c10.7-0.7,21.4-1,32.1-1.4c2.4-0.1,5.6-0.6,5.9,2.7c0.3,4-3.2,3.5-5.8,3.6c-11.1,0.5-22.3,1.3-33.4,1.4
			c-5.3,0.1-8.1,1.9-9.5,7c-1.4,4.9-3.6,9.6-5.4,14.4c-5.3,14,8.4,32.6,23.3,31.3c6.5-0.6,12.5-3.2,18.2-6.2c2-1,3.9-2.2,5.8-3.4
			c11-6.6,19-14.5,21.2-28.6c2.6-16.4,7.7-32.5,15.3-47.5c1.2-2.4,2.6-4.7,4.1-6.9c2.2-3,5-5.4,9.1-4.1c3.9,1.2,5.3,4.5,5.8,8.3
			c0.9,7.6-1.5,14.6-4.4,21.4c-5.9,13.8-13.9,26.4-22.3,38.8c-3.7,5.4-7.5,11-6.7,18.5c4.1-1,6.2-4.6,9.3-6.5
			c9.1-5.6,16.5-4.7,22.6,4c5.7,8.1,13.2,10.3,22.2,8.1c14.2-3.5,26.2-11.2,36.3-21.6c5.2-5.4,10.8-10,18.1-12c4.6-1.3,9-1,11.7,3.7
			c2.8,5,0.8,9.1-3.1,12.4c-5.5,4.6-12,6.5-19,7.4c-2.2,0.3-5.7-1.4-6.4,1.8c-0.8,3.4,1.7,5.9,4.6,7.4c6.6,3.5,13.8,5.1,21.2,5.4
			c18.5,0.7,35-5.9,50.8-14.6c4.5-2.5,8.7-5.5,13-8.1c2.2-1.4,4.8-5,7.2-1.2c2.3,3.5-1.6,5.1-3.8,6.6c-14.9,10.6-31,18.5-48.9,22.4
			c-13,2.8-25.7,2.4-38.2-2.5c-5.5-2.2-10.5-5.2-12.3-11.4c-1.2-4.4-3.3-1.5-4.7-0.5c-8.2,5.1-16.5,9.7-26.2,11.5
			c-11.1,2.1-20.2-0.6-27.1-10c-5-6.8-8.9-7.2-15.8-2.3c-5.5,4-9.6,9.3-13.6,14.6c-1.2,1.5-2.2,3.6-4.8,2.7c-2.5-0.9-2.2-3.1-2-5.1
			c0.3-3.5,0.8-7.1,1.2-10.6c0.5-0.9,0.9-2.1,0.1-2.8C513.2,415.3,512.5,416.2,512.1,416.9z M526.6,388.4c2.6-0.2,3.1-2.1,4-3.5
			c7.3-12,13-24.8,16.8-38.4c0.5-1.7,0.7-3.5,0.8-5.3c0.1-1.5,0.6-3.5-1.2-4.1c-1.9-0.6-2.5,1.5-3.2,2.7c-5.8,10.1-9.7,21-13.3,32
			C528.6,377.2,526.2,382.4,526.6,388.4z M464.9,333.9c-0.3-1.6,0.5-3.3-1.3-3.8c-2-0.5-2.6,1.4-3.2,2.7
			c-5.1,10.2-7.7,21.2-9.2,32.5c-0.2,1.3-0.5,2.8,1.3,3.2c1.9,0.4,3-0.7,3.5-2.3C459.6,355.5,463.3,344.8,464.9,333.9z M616.1,407.5
			c7.6-1.1,13.3-3,18.3-7c1.3-1,2.3-2.2,1.7-4c-0.7-2.1-2.7-1.5-4-1.2C625.5,396.7,620.2,400.1,616.1,407.5z M449.2,385
			c2.6-3.7,4.3-6.3,2.9-10.2C447.6,377,448.7,380.3,449.2,385z"/>
	</g>
	<g>
		<path class="st6" d="M122.1,1025.7c-12.7,6.5-23.1,17.5-29,30.5c-3.7,8.2-5.6,17.1-8.5,25.6c-2.9,8.5-7.1,17-14.2,22.6
			c-3.8,3-8.4,5-12.7,7.3c-5.8,3-12.3,7.1-17.7,10.9c-8.9-13.7-18.1-28.1-20.4-44.3c-1.6-11.4,0.4-23,1.3-34.5s0.8-23.6-4.6-33.8
			c0.7-5.8,11.1-8.2,16.1-5.1c5,3.1,7.1,9.1,8.5,14.7s2.6,11.7,6.4,16.1c4.1,4.7,10.6,6.7,14.7,11.3c6.8,7.9,4.3,20.2-0.8,29.3
			c-5.1,9.1-16.1,16.2-17.1,37.3"/>
		<path class="st6" d="M52.2,1038.3c4.7-11.9,18.1-19.8,30.8-17.9c6.6,1,13.2,4.2,19.7,2.8c2.1-0.5,4.1-1.4,6.2-1.8
			c4.3-0.8,9,0.7,12,3.8"/>
		<path class="st6" d="M34.1,1005.3c2.8-3.7,8.1-4.8,12.7-3.8s8.6,3.5,12.5,6c3.9,2.5,8,5.1,12.5,5.9c6.8,1.3,13.8-1.5,20.8-0.9
			c6.4,0.5,12.5,3.9,16.3,9.1"/>
		<path class="st6" d="M46.3,1033.8c4.4-9.2,5.9-19.5,6.9-29.7c1.2-11.2,1.8-22.5,1.5-33.7c-0.2-6.1-0.8-12.3-3-18
			c-0.4-1.1-1.4-2.4-2.5-2c-1.2,0.4-1.1,2-0.8,3.2c1.1,3.4,2.9,6.5,5.4,9.1"/>
		<path class="st6" d="M52.1,1037.7c13.5-24,27.3-48.4,47.5-67c2.7-2.5,5.8-5,9.4-5.5c-0.4,4.2-4.8,7.5-8.9,6.6"/>
		<path class="st6" d="M65.1,1023.9c7.9-21.8,12.1-47.1,15.5-70.1c1.2-8.1,2.2-16.5-0.4-24.3c-0.3-0.9-1.1-2-2-1.7
			c-1.2,3.6-0.1,7.8,2.8,10.2"/>
		<path class="st6" d="M31.3,1070.7c-1.3,10.3-0.2,20.8,3.2,30.6c2.2,6.4,5.4,12.7,5.1,19.4"/>
		<path class="st6" d="M71.6,1077.7c-0.9,7.8-6.6,14.1-12.5,19.3s-16.1,16.8-19.5,23.8"/>
	</g>
	<g>
		<path class="st6" d="M1040.3,170.3c-14.2-1.1-28.8,2.8-40.7,10.8c-7.5,5.1-13.7,11.6-20.7,17.4c-7,5.7-15,10.8-23.9,11.8
			c-4.9,0.6-9.8-0.1-14.7-0.5c-6.5-0.5-14.2-0.4-20.7,0c-0.4-16.4-0.7-33.4,5.8-48.4c4.6-10.6,12.3-19.4,19.2-28.7
			c6.8-9.3,13-19.7,13.8-31.2c3.6-4.6,13.8-1.2,16.4,4c2.6,5.2,1.3,11.5-0.4,17s-3.9,11.3-2.9,17c1,6.1,5.6,11.2,6.6,17.4
			c1.7,10.3-6.9,19.5-16,24.6c-9.1,5.1-22.2,5.4-34.1,22.9"/>
		<path class="st6" d="M974.2,144.5c10.2-7.7,25.8-7.4,35.6,0.8c5.2,4.3,9,10.5,15.3,12.7c2.1,0.7,4.2,1,6.3,1.7
			c4.1,1.5,7.3,5.3,8.2,9.6"/>
		<path class="st6" d="M976,106.8c4.3-1.7,9.4,0.2,12.8,3.3c3.4,3.2,5.5,7.5,7.5,11.7s4.2,8.5,7.6,11.6c5.2,4.6,12.5,6,18.2,10.1
			c5.2,3.8,8.6,9.9,9.2,16.3"/>
		<path class="st6" d="M971.5,137.5c8.6-5.5,15.2-13.6,21.5-21.7c6.8-8.9,13.3-18.2,18.9-28c3-5.3,5.8-10.9,6.8-16.9
			c0.2-1.2,0.1-2.8-1.1-3.1c-1.2-0.3-2,1.2-2.3,2.3c-0.9,3.4-0.9,7.1-0.2,10.5"/>
		<path class="st6" d="M974.4,143.9c24-13.4,48.6-27,75.6-32.3c3.6-0.7,7.5-1.2,10.9,0.3c-2.5,3.4-8,3.8-11.1,0.9"/>
		<path class="st6" d="M992.6,138.9c18.2-14.5,35-33.8,49.9-51.6c5.2-6.3,10.6-12.9,12.4-20.9c0.2-1,0.1-2.3-0.8-2.5
			c-2.9,2.4-4.1,6.6-3,10.2"/>
		<path class="st6" d="M939.4,161.1c-6.5,8.1-11.1,17.6-13.3,27.8c-1.5,6.6-2,13.7-5.8,19.2"/>
		<path class="st6" d="M970.1,188.1c-4.9,6.1-13,8.5-20.7,9.9s-22.5,5.9-29.1,10.1"/>
	</g>
	<g>
		<path class="st6" d="M96.6,1782.3c-15.3-5-32.3,2.3-44.5,12.9c-4.6,4-8.8,8.4-13.8,11.7s-11.3,5.5-17.2,4.2
			c15.4,10.1,38.2,6.9,50.8-6.4c6.8-7.1,11.3-17.1,20.3-21c10.3-4.5,22.1,0.7,32.1,5.8"/>
		<path class="st6" d="M46.1,1807.5c2-0.4,3.9-1,5.7-1.8c3.4-1.4,6.6-3.2,9.6-5.4c6.9-5,12.6-11.9,20.5-15.3
			c4.1-1.7,8.5-2.4,12.9-2.7"/>
	</g>
	<g>
		<g>
			<path class="st6" d="M980.5,1004.3c36.3,92.2,69.3,185.2,100.2,278.7"/>
			<path class="st6" d="M978.5,987.5c-1-6.7-3.3-13.3-6.6-19.2c-1.8-3.1-4-6.2-7.2-7.8c-1-0.5-2.2-0.8-3.2-0.5
				c-2.4,0.7-2.7,4-2.3,6.4c1.8,13.3,9.9,29.5,20.7,37.8C982,1002,979,990.8,978.5,987.5z"/>
			<path class="st6" d="M1066,1034.3c4.7-4.9,8.4-10.7,11.1-17c1.4-3.3,2.5-7,1.7-10.5c-0.2-1.1-0.7-2.2-1.6-2.8
				c-2-1.4-4.8,0.3-6.5,2.1c-9.4,9.6-17.2,25.9-17.1,39.5C1056.6,1046,1063.7,1036.8,1066,1034.3z"/>
			<path class="st6" d="M895.5,1140.2c-6.1-3.1-12.7-5-19.5-5.7c-3.6-0.4-7.4-0.4-10.5,1.4c-1,0.5-1.9,1.3-2.2,2.3
				c-0.8,2.4,1.7,4.5,3.9,5.6c11.9,6.2,29.8,9,42.8,5C909.4,1145.9,898.5,1141.8,895.5,1140.2z"/>
			<path class="st6" d="M958.1,1075c1.8-6.7,2.2-13.6,1.1-20.3c-0.5-3.6-1.6-7.2-4.4-9.9c-0.9-0.8-2-1.5-3.2-1.6
				c-2.8-0.2-4.6,2.7-5.2,5.1c-3.8,13.1-2,31.1,6,42.7C955.5,1089.8,957.2,1078.3,958.1,1075z"/>
			<path class="st6" d="M1023.2,1012.7c3.1-7.7,4.7-15.9,4.9-24.2c0.1-4.4-0.3-9-2.8-12.6c-0.8-1.1-1.8-2.2-3.1-2.5
				c-2.9-0.7-5.2,2.5-6.4,5.3c-6.3,15-7.8,37-1.7,52.4C1017.8,1030.1,1021.6,1016.5,1023.2,1012.7z"/>
			<path class="st6" d="M949.7,1021.3c-3.3-7.6-8-14.6-13.8-20.5c-3.1-3.1-6.6-6.1-10.9-6.9c-1.3-0.3-2.8-0.3-3.9,0.5
				c-2.5,1.6-1.9,5.5-0.8,8.3c6.3,15.1,20.9,31.6,36.1,38C958.3,1037.3,951.3,1025.1,949.7,1021.3z"/>
			<path class="st6" d="M1014.2,1031.1c0.1,20.1,3.3,40.8,0.2,60.9c-8.3-10.4-17-20.8-27.1-29.5c-9.6-8.2-21.2-13.7-30.8-21.8"/>
			<path class="st6" d="M978.8,1185.7c-3-6.8-7.1-13-12.3-18.3c-2.7-2.8-5.9-5.4-9.7-6.2c-1.2-0.2-2.5-0.2-3.5,0.4
				c-2.3,1.4-1.7,4.9-0.7,7.4c5.6,13.4,18.6,28.2,32.2,33.9C986.5,1200.1,980.3,1189.1,978.8,1185.7z"/>
			<path class="st6" d="M1018.1,1190c-0.8-7.3-2.8-14.6-6.1-21.2c-1.7-3.5-4-7-7.4-8.8c-1.1-0.6-2.3-1-3.5-0.7
				c-2.6,0.7-3.1,4.1-2.9,6.8c1.2,14.5,9.1,32.5,20.3,42.1C1021.1,1206,1018.5,1193.7,1018.1,1190z"/>
			<path class="st6" d="M985,1225.6c-6.7-3.1-14-5-21.3-5.5c-3.9-0.3-8-0.1-11.4,1.9c-1,0.6-2,1.5-2.4,2.6c-0.8,2.6,2,4.8,4.4,6
				c13.1,6.3,32.6,8.7,46.6,3.9C1000.2,1231.2,988.3,1227.1,985,1225.6z"/>
			<path class="st6" d="M1080.7,1286.7c-10.6-13.3-21.5-26.4-33.7-38.3c-12.1-11.7-25.6-20.9-39.7-30c-7.8-5-15.5-10.2-22.6-16.2"/>
			<path class="st6" d="M1047.6,1185.1c-2.4-8.4-5.6-13.8-11.4-18.5c-5.7-4.7-12.7-7.7-19.4-10.7c-29.5-13.2-58.8-28.7-80.7-52.5"/>
			<path class="st6" d="M934.4,1094.6c0-0.1-0.1-0.3-0.1-0.4c-1.2-3.7-2.8-7.2-4.8-10.5c-4.5-7.2-11.3-14.6-19.6-17
				c-1.9-0.6-4.5-0.6-5.4,1.1c-0.4,0.8-0.3,1.8-0.2,2.7c1.3,8,7,14.6,13.4,19.6c5.7,4.6,11.7,10.1,18.6,13.5
				c0.2,0.1-0.4-4.4-0.5-4.8C935.4,1097.4,934.9,1096,934.4,1094.6z"/>
			<path class="st6" d="M997.1,1146.6c-12.9-6.1-27.8-4.2-41.4-1.8c-15.2,2.7-30.3,5.2-45.8,3.9"/>
			<path class="st6" d="M952.3,1091.1c-0.3,17,14.7,31.3,24,44.2"/>
			<path class="st6" d="M1081,1050.3c-29.2,15.2-34.2,52.2-30.2,82.2c3,21,4,42,0.1,62.1"/>
			<path class="st6" d="M1054.7,1045.2c-8.6,14.7-9.6,34.9-3.4,50.7"/>
			<path class="st6" d="M1079.5,1083.1c-13.8,6.4-23.4,17.8-29.5,31.6"/>
			<path class="st6" d="M1018.3,1207.8c2.2,5.5,4.6,11,7,16.4c1.5,3.5,3.1,6.9,5.3,10c-4.3-1.6-9-1.6-13.7-1.7
				c-5.5-0.1-11.1-0.1-16.3,1.6"/>
		</g>
	</g>
	<g>
		<g>
			<path class="st6" d="M123.2,1242.2C85,1301.5,50,1360.5,15,1423.5c-5,8-10,17-14.6,24.7"/>
			<path class="st6" d="M128.3,1226c2.3-6.4,5.7-12.4,10.1-17.6c2.3-2.8,5.1-5.4,8.5-6.3c1.1-0.3,2.3-0.4,3.2,0.1
				c2.2,1.2,1.9,4.4,1.1,6.7c-4.2,12.7-15.2,27.1-27.4,33.3C122.2,1239.7,127.2,1229.2,128.3,1226z"/>
			<path class="st6" d="M1.4,1263c1.5-0.1,2.7-0.3,3.2-0.9c-1-1.2-2.1-2.3-3.2-3.5C1.4,1260.1,1.4,1261.6,1.4,1263z"/>
			<path class="st6" d="M33.6,1255.7c-3.7-5.7-6.3-12.1-7.7-18.8c-0.7-3.5-1.1-7.3,0.3-10.6c0.4-1,1.1-2,2.1-2.5
				c2.3-1,4.6,1.2,6,3.3c7.4,11.2,12,28.7,9.4,42C40.7,1268.9,35.4,1258.6,33.6,1255.7z"/>
			<path class="st6" d="M181.4,1391.6c6.5-1.9,13.4-2.5,20.2-2c3.6,0.3,7.3,1,10.1,3.3c0.9,0.7,1.6,1.6,1.8,2.7
				c0.3,2.5-2.5,4.1-4.8,4.8c-12.8,3.9-30.9,3.3-43-3C166.7,1394.5,178.1,1392.5,181.4,1391.6z"/>
			<path class="st6" d="M132,1315.8c-0.5-6.9,0.4-13.7,2.7-20.1c1.2-3.4,2.9-6.8,6.1-8.9c1-0.6,2.2-1.1,3.5-1c2.8,0.4,4,3.5,4.2,6
				c1.3,13.5-3.8,30.9-13.8,40.8C131.8,1330.8,132.3,1319.2,132,1315.8z"/>
			<path class="st6" d="M1.3,1295.2c0,2.3,0,4.6-0.1,6.8c3.6-0.7,7-1.7,7.7-3.2C6.6,1297.4,4,1296.2,1.3,1295.2z"/>
			<path class="st6" d="M79.7,1242.5c-1.6-8.1-1.7-16.6-0.3-24.7c0.7-4.3,2-8.8,5.1-11.9c0.9-1,2.1-1.8,3.5-1.9
				c3-0.1,4.7,3.4,5.3,6.4c3.4,16,0.8,37.9-8.2,51.8C81.8,1260.6,80.5,1246.5,79.7,1242.5z"/>
			<path class="st6" d="M150.3,1264.6c4.7-6.8,10.6-12.8,17.4-17.6c3.6-2.5,7.6-4.7,12-4.8c1.4,0,2.8,0.2,3.8,1.2
				c2.2,2.1,0.9,5.7-0.8,8.3c-9,13.6-26.4,27.1-42.6,30.6C138.9,1278.8,148,1268,150.3,1264.6z"/>
			<path class="st6" d="M85.2,1262.2c-3.9,19.8-10.9,39.5-11.6,59.8c10.1-8.7,20.5-17.3,32.2-24c11-6.3,23.4-9.5,34.4-15.7"/>
			<path class="st6" d="M91,1420.8c4.2-6.1,9.4-11.4,15.5-15.7c3.2-2.2,6.8-4.2,10.7-4.2c1.2,0,2.5,0.2,3.4,1.1
				c2,1.8,0.8,5.1-0.7,7.4c-8,12.2-23.5,24.2-38,27.3C80.8,1433.4,89,1423.8,91,1420.8z"/>
			<path class="st6" d="M51.6,1417.6c2.1-7.1,5.5-13.8,10-19.6c2.4-3.1,5.2-6.1,8.9-7.3c1.2-0.4,2.4-0.6,3.5,0
				c2.4,1.2,2.3,4.6,1.6,7.2c-3.9,14-15,30.2-27.8,37.6C45.8,1432.8,50.6,1421.1,51.6,1417.6z"/>
			<path class="st6" d="M77.6,1458.7c7.2-1.8,14.7-2.3,22-1.4c3.9,0.4,7.9,1.4,10.8,3.9c0.9,0.8,1.7,1.8,1.8,3
				c0.2,2.7-2.8,4.3-5.4,5c-14.1,3.8-33.7,2.5-46.5-4.8C61.6,1461.4,74,1459.6,77.6,1458.7z"/>
			<path class="st6" d="M1.8,1477.1c22.2-18.6,50.2-26.6,76.2-38.6c1-1,3-2,4.3-2.6"/>
			<path class="st6" d="M23.6,1407.3c3.9-7.8,8.1-12.5,14.6-16.1s13.9-5.2,21.1-6.9c31.4-7.5,63.1-17.3,89.1-36.5"/>
			<path class="st6" d="M151.7,1339.5c0.1-0.1,0.1-0.2,0.2-0.3c1.8-3.4,4.1-6.6,6.7-9.4c5.7-6.3,13.8-12.2,22.4-13
				c2-0.2,4.5,0.2,5.1,2.1c0.3,0.9,0,1.8-0.3,2.7c-2.8,7.6-9.6,13-16.8,16.8c-6.4,3.4-13.4,7.7-20.8,9.8c-0.2,0.1,1.2-4.3,1.4-4.7
				C150.1,1342.1,150.9,1340.8,151.7,1339.5z"/>
			<path class="st6" d="M80.3,1378.9c13.8-3.5,28.1,1,41,5.9c14.4,5.5,28.8,10.7,44.3,12.4"/>
			<path class="st6" d="M134.8,1332.7c-2.9,16.8-20.2,28-31.8,38.9"/>
			<path class="st6" d="M4.6,1262.2c15.1,5.9,25.9,20.3,30,36c4.1,15.7,2.2,32.5-2.7,48c-3.5,11.4-5.2,18.6-8,30.2
				c-2.9,11.6-5.4,25.8-5.4,39.6"/>
			<path class="st6" d="M42.7,1268.5c5.7,16,3,36.1-6.1,50.4"/>
			<path class="st6" d="M7.4,1298.5c15,9.3,23,21.9,27,39.1"/>
			<path class="st6" d="M48.1,1435.1c-3.2,5-6.6,9.9-10,14.8c-2.2,3.1-4.3,6.3-7.1,8.9c4.6-0.8,9.2,0.1,13.7,0.9
				c5.4,0.9,10.9,2,15.8,4.6"/>
		</g>
	</g>
</g>
</svg>
